solid OpenSCAD_Model
  facet normal -1 0 0
    outer loop
      vertex 0 50 0
      vertex 0 47.2727 2.001
      vertex 0 50 32
    endloop
  endfacet
  facet normal -1 0 0
    outer loop
      vertex 0 50 0
      vertex 0 45.2727 2.001
      vertex 0 47.2727 2.001
    endloop
  endfacet
  facet normal -1 0 0
    outer loop
      vertex 0 45.2727 2.001
      vertex 0 42.5455 2.001
      vertex 0 45.2727 32
    endloop
  endfacet
  facet normal -1 0 0
    outer loop
      vertex 0 50 0
      vertex 0 42.5455 2.001
      vertex 0 45.2727 2.001
    endloop
  endfacet
  facet normal -1 0 0
    outer loop
      vertex 0 50 0
      vertex 0 40.5455 2.001
      vertex 0 42.5455 2.001
    endloop
  endfacet
  facet normal -1 0 0
    outer loop
      vertex 0 40.5455 2.001
      vertex 0 37.8182 2.001
      vertex 0 40.5455 32
    endloop
  endfacet
  facet normal -1 0 0
    outer loop
      vertex 0 50 0
      vertex 0 37.8182 2.001
      vertex 0 40.5455 2.001
    endloop
  endfacet
  facet normal -1 0 0
    outer loop
      vertex 0 50 0
      vertex 0 35.8182 2.001
      vertex 0 37.8182 2.001
    endloop
  endfacet
  facet normal -1 0 0
    outer loop
      vertex 0 35.8182 2.001
      vertex 0 33.0909 2.001
      vertex 0 35.8182 32
    endloop
  endfacet
  facet normal -1 0 0
    outer loop
      vertex 0 50 0
      vertex 0 33.0909 2.001
      vertex 0 35.8182 2.001
    endloop
  endfacet
  facet normal -1 0 0
    outer loop
      vertex 0 50 0
      vertex 0 31.0909 2.001
      vertex 0 33.0909 2.001
    endloop
  endfacet
  facet normal -1 0 0
    outer loop
      vertex 0 31.0909 2.001
      vertex 0 28.3636 2.001
      vertex 0 31.0909 32
    endloop
  endfacet
  facet normal -1 0 0
    outer loop
      vertex 0 50 0
      vertex 0 28.3636 2.001
      vertex 0 31.0909 2.001
    endloop
  endfacet
  facet normal -1 0 0
    outer loop
      vertex 0 50 0
      vertex 0 26.3636 2.001
      vertex 0 28.3636 2.001
    endloop
  endfacet
  facet normal -1 0 0
    outer loop
      vertex 0 26.3636 2.001
      vertex 0 23.6364 2.001
      vertex 0 26.3636 32
    endloop
  endfacet
  facet normal -1 0 0
    outer loop
      vertex 0 50 0
      vertex 0 23.6364 2.001
      vertex 0 26.3636 2.001
    endloop
  endfacet
  facet normal -1 0 0
    outer loop
      vertex 0 0 0
      vertex 0 23.6364 2.001
      vertex 0 50 0
    endloop
  endfacet
  facet normal -1 0 0
    outer loop
      vertex 0 21.6364 2.001
      vertex 0 18.9091 2.001
      vertex 0 21.6364 32
    endloop
  endfacet
  facet normal -1 -0 0
    outer loop
      vertex 0 23.6364 2.001
      vertex 0 0 0
      vertex 0 21.6364 2.001
    endloop
  endfacet
  facet normal -1 -0 0
    outer loop
      vertex 0 21.6364 2.001
      vertex 0 0 0
      vertex 0 18.9091 2.001
    endloop
  endfacet
  facet normal -1 0 0
    outer loop
      vertex 0 16.9091 2.001
      vertex 0 14.1818 2.001
      vertex 0 16.9091 32
    endloop
  endfacet
  facet normal -1 -0 0
    outer loop
      vertex 0 18.9091 2.001
      vertex 0 0 0
      vertex 0 16.9091 2.001
    endloop
  endfacet
  facet normal -1 -0 0
    outer loop
      vertex 0 16.9091 2.001
      vertex 0 0 0
      vertex 0 14.1818 2.001
    endloop
  endfacet
  facet normal -1 0 0
    outer loop
      vertex 0 12.1818 2.001
      vertex 0 9.45455 2.001
      vertex 0 12.1818 32
    endloop
  endfacet
  facet normal -1 -0 0
    outer loop
      vertex 0 14.1818 2.001
      vertex 0 0 0
      vertex 0 12.1818 2.001
    endloop
  endfacet
  facet normal -1 -0 0
    outer loop
      vertex 0 12.1818 2.001
      vertex 0 0 0
      vertex 0 9.45455 2.001
    endloop
  endfacet
  facet normal -1 0 0
    outer loop
      vertex 0 7.45455 2.001
      vertex 0 4.72727 2.001
      vertex 0 7.45455 32
    endloop
  endfacet
  facet normal -1 -0 0
    outer loop
      vertex 0 9.45455 2.001
      vertex 0 0 0
      vertex 0 7.45455 2.001
    endloop
  endfacet
  facet normal -1 -0 0
    outer loop
      vertex 0 7.45455 2.001
      vertex 0 0 0
      vertex 0 4.72727 2.001
    endloop
  endfacet
  facet normal -1 -0 0
    outer loop
      vertex 0 4.72727 2.001
      vertex 0 0 0
      vertex 0 2.72727 2.001
    endloop
  endfacet
  facet normal -1 0 0
    outer loop
      vertex 0 0 32
      vertex 0 2.72727 2.001
      vertex 0 0 0
    endloop
  endfacet
  facet normal -1 0 0
    outer loop
      vertex 0 2.72727 2.001
      vertex 0 0 32
      vertex 0 2.72727 32
    endloop
  endfacet
  facet normal -1 -0 0
    outer loop
      vertex 0 50 32
      vertex 0 47.2727 2.001
      vertex 0 47.2727 32
    endloop
  endfacet
  facet normal -1 -0 0
    outer loop
      vertex 0 45.2727 32
      vertex 0 42.5455 2.001
      vertex 0 42.5455 32
    endloop
  endfacet
  facet normal -1 -0 0
    outer loop
      vertex 0 40.5455 32
      vertex 0 37.8182 2.001
      vertex 0 37.8182 32
    endloop
  endfacet
  facet normal -1 -0 0
    outer loop
      vertex 0 35.8182 32
      vertex 0 33.0909 2.001
      vertex 0 33.0909 32
    endloop
  endfacet
  facet normal -1 -0 0
    outer loop
      vertex 0 31.0909 32
      vertex 0 28.3636 2.001
      vertex 0 28.3636 32
    endloop
  endfacet
  facet normal -1 -0 0
    outer loop
      vertex 0 26.3636 32
      vertex 0 23.6364 2.001
      vertex 0 23.6364 32
    endloop
  endfacet
  facet normal -1 -0 0
    outer loop
      vertex 0 21.6364 32
      vertex 0 18.9091 2.001
      vertex 0 18.9091 32
    endloop
  endfacet
  facet normal -1 -0 0
    outer loop
      vertex 0 16.9091 32
      vertex 0 14.1818 2.001
      vertex 0 14.1818 32
    endloop
  endfacet
  facet normal -1 -0 0
    outer loop
      vertex 0 12.1818 32
      vertex 0 9.45455 2.001
      vertex 0 9.45455 32
    endloop
  endfacet
  facet normal -1 -0 0
    outer loop
      vertex 0 7.45455 32
      vertex 0 4.72727 2.001
      vertex 0 4.72727 32
    endloop
  endfacet
  facet normal -0 0 1
    outer loop
      vertex 15 50 2
      vertex 25 0 2
      vertex 25 50 2
    endloop
  endfacet
  facet normal 0 0 1
    outer loop
      vertex 25 0 2
      vertex 15 50 2
      vertex 15 0 2
    endloop
  endfacet
  facet normal 1 0 0
    outer loop
      vertex 40 2.72727 32
      vertex 40 0 32
      vertex 40 2.72727 2.001
    endloop
  endfacet
  facet normal 1 0 0
    outer loop
      vertex 40 7.45455 32
      vertex 40 4.72727 32
      vertex 40 7.45455 2.001
    endloop
  endfacet
  facet normal 1 0 0
    outer loop
      vertex 40 12.1818 32
      vertex 40 9.45455 32
      vertex 40 12.1818 2.001
    endloop
  endfacet
  facet normal 1 0 0
    outer loop
      vertex 40 16.9091 32
      vertex 40 14.1818 32
      vertex 40 16.9091 2.001
    endloop
  endfacet
  facet normal 1 0 0
    outer loop
      vertex 40 21.6364 32
      vertex 40 18.9091 32
      vertex 40 21.6364 2.001
    endloop
  endfacet
  facet normal 1 0 0
    outer loop
      vertex 40 26.3636 32
      vertex 40 23.6364 32
      vertex 40 26.3636 2.001
    endloop
  endfacet
  facet normal 1 0 0
    outer loop
      vertex 40 31.0909 32
      vertex 40 28.3636 32
      vertex 40 31.0909 2.001
    endloop
  endfacet
  facet normal 1 0 0
    outer loop
      vertex 40 35.8182 32
      vertex 40 33.0909 32
      vertex 40 35.8182 2.001
    endloop
  endfacet
  facet normal 1 0 0
    outer loop
      vertex 40 40.5455 32
      vertex 40 37.8182 32
      vertex 40 40.5455 2.001
    endloop
  endfacet
  facet normal 1 0 0
    outer loop
      vertex 40 45.2727 32
      vertex 40 42.5455 32
      vertex 40 45.2727 2.001
    endloop
  endfacet
  facet normal 1 0 0
    outer loop
      vertex 40 47.2727 2.001
      vertex 40 50 32
      vertex 40 47.2727 32
    endloop
  endfacet
  facet normal 1 0 0
    outer loop
      vertex 40 50 32
      vertex 40 47.2727 2.001
      vertex 40 50 0
    endloop
  endfacet
  facet normal 1 -0 0
    outer loop
      vertex 40 45.2727 2.001
      vertex 40 50 0
      vertex 40 47.2727 2.001
    endloop
  endfacet
  facet normal 1 0 0
    outer loop
      vertex 40 42.5455 2.001
      vertex 40 45.2727 2.001
      vertex 40 42.5455 32
    endloop
  endfacet
  facet normal 1 -0 0
    outer loop
      vertex 40 42.5455 2.001
      vertex 40 50 0
      vertex 40 45.2727 2.001
    endloop
  endfacet
  facet normal 1 -0 0
    outer loop
      vertex 40 40.5455 2.001
      vertex 40 50 0
      vertex 40 42.5455 2.001
    endloop
  endfacet
  facet normal 1 0 0
    outer loop
      vertex 40 37.8182 2.001
      vertex 40 40.5455 2.001
      vertex 40 37.8182 32
    endloop
  endfacet
  facet normal 1 -0 0
    outer loop
      vertex 40 37.8182 2.001
      vertex 40 50 0
      vertex 40 40.5455 2.001
    endloop
  endfacet
  facet normal 1 -0 0
    outer loop
      vertex 40 35.8182 2.001
      vertex 40 50 0
      vertex 40 37.8182 2.001
    endloop
  endfacet
  facet normal 1 0 0
    outer loop
      vertex 40 33.0909 2.001
      vertex 40 35.8182 2.001
      vertex 40 33.0909 32
    endloop
  endfacet
  facet normal 1 -0 0
    outer loop
      vertex 40 33.0909 2.001
      vertex 40 50 0
      vertex 40 35.8182 2.001
    endloop
  endfacet
  facet normal 1 -0 0
    outer loop
      vertex 40 31.0909 2.001
      vertex 40 50 0
      vertex 40 33.0909 2.001
    endloop
  endfacet
  facet normal 1 0 0
    outer loop
      vertex 40 28.3636 2.001
      vertex 40 31.0909 2.001
      vertex 40 28.3636 32
    endloop
  endfacet
  facet normal 1 -0 0
    outer loop
      vertex 40 28.3636 2.001
      vertex 40 50 0
      vertex 40 31.0909 2.001
    endloop
  endfacet
  facet normal 1 -0 0
    outer loop
      vertex 40 26.3636 2.001
      vertex 40 50 0
      vertex 40 28.3636 2.001
    endloop
  endfacet
  facet normal 1 0 0
    outer loop
      vertex 40 23.6364 2.001
      vertex 40 26.3636 2.001
      vertex 40 23.6364 32
    endloop
  endfacet
  facet normal 1 -0 0
    outer loop
      vertex 40 23.6364 2.001
      vertex 40 50 0
      vertex 40 26.3636 2.001
    endloop
  endfacet
  facet normal 1 0 0
    outer loop
      vertex 40 0 0
      vertex 40 23.6364 2.001
      vertex 40 21.6364 2.001
    endloop
  endfacet
  facet normal 1 0 0
    outer loop
      vertex 40 18.9091 2.001
      vertex 40 21.6364 2.001
      vertex 40 18.9091 32
    endloop
  endfacet
  facet normal 1 0 0
    outer loop
      vertex 40 0 0
      vertex 40 21.6364 2.001
      vertex 40 18.9091 2.001
    endloop
  endfacet
  facet normal 1 0 0
    outer loop
      vertex 40 0 0
      vertex 40 18.9091 2.001
      vertex 40 16.9091 2.001
    endloop
  endfacet
  facet normal 1 0 0
    outer loop
      vertex 40 14.1818 2.001
      vertex 40 16.9091 2.001
      vertex 40 14.1818 32
    endloop
  endfacet
  facet normal 1 0 0
    outer loop
      vertex 40 0 0
      vertex 40 16.9091 2.001
      vertex 40 14.1818 2.001
    endloop
  endfacet
  facet normal 1 0 0
    outer loop
      vertex 40 0 0
      vertex 40 14.1818 2.001
      vertex 40 12.1818 2.001
    endloop
  endfacet
  facet normal 1 0 0
    outer loop
      vertex 40 9.45455 2.001
      vertex 40 12.1818 2.001
      vertex 40 9.45455 32
    endloop
  endfacet
  facet normal 1 0 0
    outer loop
      vertex 40 0 0
      vertex 40 12.1818 2.001
      vertex 40 9.45455 2.001
    endloop
  endfacet
  facet normal 1 0 0
    outer loop
      vertex 40 0 0
      vertex 40 9.45455 2.001
      vertex 40 7.45455 2.001
    endloop
  endfacet
  facet normal 1 0 0
    outer loop
      vertex 40 4.72727 2.001
      vertex 40 7.45455 2.001
      vertex 40 4.72727 32
    endloop
  endfacet
  facet normal 1 0 0
    outer loop
      vertex 40 0 0
      vertex 40 7.45455 2.001
      vertex 40 4.72727 2.001
    endloop
  endfacet
  facet normal 1 0 0
    outer loop
      vertex 40 0 0
      vertex 40 4.72727 2.001
      vertex 40 2.72727 2.001
    endloop
  endfacet
  facet normal 1 0 0
    outer loop
      vertex 40 23.6364 2.001
      vertex 40 0 0
      vertex 40 50 0
    endloop
  endfacet
  facet normal 1 0 0
    outer loop
      vertex 40 0 0
      vertex 40 2.72727 2.001
      vertex 40 0 32
    endloop
  endfacet
  facet normal 0 1 0
    outer loop
      vertex 40 50 32
      vertex 25 50 2
      vertex 25 50 32
    endloop
  endfacet
  facet normal 0 1 0
    outer loop
      vertex 25 50 2
      vertex 40 50 0
      vertex 15 50 2
    endloop
  endfacet
  facet normal 0 1 -0
    outer loop
      vertex 40 50 0
      vertex 25 50 2
      vertex 40 50 32
    endloop
  endfacet
  facet normal 0 1 -0
    outer loop
      vertex 15 50 2
      vertex 0 50 32
      vertex 15 50 32
    endloop
  endfacet
  facet normal 0 1 0
    outer loop
      vertex 15 50 2
      vertex 0 50 0
      vertex 0 50 32
    endloop
  endfacet
  facet normal 0 1 0
    outer loop
      vertex 0 50 0
      vertex 15 50 2
      vertex 40 50 0
    endloop
  endfacet
  facet normal 0 0 -1
    outer loop
      vertex 0 0 0
      vertex 40 50 0
      vertex 40 0 0
    endloop
  endfacet
  facet normal -0 0 -1
    outer loop
      vertex 40 50 0
      vertex 0 0 0
      vertex 0 50 0
    endloop
  endfacet
  facet normal 0 -1 0
    outer loop
      vertex 0 0 32
      vertex 15 0 2
      vertex 15 0 32
    endloop
  endfacet
  facet normal 0 -1 -0
    outer loop
      vertex 15 0 2
      vertex 0 0 0
      vertex 25 0 2
    endloop
  endfacet
  facet normal 0 -1 0
    outer loop
      vertex 0 0 0
      vertex 15 0 2
      vertex 0 0 32
    endloop
  endfacet
  facet normal 0 -1 0
    outer loop
      vertex 25 0 2
      vertex 40 0 32
      vertex 25 0 32
    endloop
  endfacet
  facet normal 0 -1 0
    outer loop
      vertex 25 0 2
      vertex 40 0 0
      vertex 40 0 32
    endloop
  endfacet
  facet normal 0 -1 0
    outer loop
      vertex 40 0 0
      vertex 25 0 2
      vertex 0 0 0
    endloop
  endfacet
  facet normal -0 0 1
    outer loop
      vertex 0 2.72727 32
      vertex 15 0 32
      vertex 15 2.72727 32
    endloop
  endfacet
  facet normal 0 0 1
    outer loop
      vertex 15 0 32
      vertex 0 2.72727 32
      vertex 0 0 32
    endloop
  endfacet
  facet normal -0 0 1
    outer loop
      vertex 0 50 32
      vertex 15 47.2727 32
      vertex 15 50 32
    endloop
  endfacet
  facet normal 0 0 1
    outer loop
      vertex 15 47.2727 32
      vertex 0 50 32
      vertex 0 47.2727 32
    endloop
  endfacet
  facet normal -0 0 1
    outer loop
      vertex 0 7.45455 32
      vertex 15 4.72727 32
      vertex 15 7.45455 32
    endloop
  endfacet
  facet normal 0 0 1
    outer loop
      vertex 15 4.72727 32
      vertex 0 7.45455 32
      vertex 0 4.72727 32
    endloop
  endfacet
  facet normal -0 0 1
    outer loop
      vertex 0 12.1818 32
      vertex 15 9.45455 32
      vertex 15 12.1818 32
    endloop
  endfacet
  facet normal 0 0 1
    outer loop
      vertex 15 9.45455 32
      vertex 0 12.1818 32
      vertex 0 9.45455 32
    endloop
  endfacet
  facet normal -0 0 1
    outer loop
      vertex 0 16.9091 32
      vertex 15 14.1818 32
      vertex 15 16.9091 32
    endloop
  endfacet
  facet normal 0 0 1
    outer loop
      vertex 15 14.1818 32
      vertex 0 16.9091 32
      vertex 0 14.1818 32
    endloop
  endfacet
  facet normal -0 0 1
    outer loop
      vertex 0 21.6364 32
      vertex 15 18.9091 32
      vertex 15 21.6364 32
    endloop
  endfacet
  facet normal 0 0 1
    outer loop
      vertex 15 18.9091 32
      vertex 0 21.6364 32
      vertex 0 18.9091 32
    endloop
  endfacet
  facet normal -0 0 1
    outer loop
      vertex 0 26.3636 32
      vertex 15 23.6364 32
      vertex 15 26.3636 32
    endloop
  endfacet
  facet normal 0 0 1
    outer loop
      vertex 15 23.6364 32
      vertex 0 26.3636 32
      vertex 0 23.6364 32
    endloop
  endfacet
  facet normal -0 0 1
    outer loop
      vertex 0 31.0909 32
      vertex 15 28.3636 32
      vertex 15 31.0909 32
    endloop
  endfacet
  facet normal 0 0 1
    outer loop
      vertex 15 28.3636 32
      vertex 0 31.0909 32
      vertex 0 28.3636 32
    endloop
  endfacet
  facet normal -0 0 1
    outer loop
      vertex 0 35.8182 32
      vertex 15 33.0909 32
      vertex 15 35.8182 32
    endloop
  endfacet
  facet normal 0 0 1
    outer loop
      vertex 15 33.0909 32
      vertex 0 35.8182 32
      vertex 0 33.0909 32
    endloop
  endfacet
  facet normal -0 0 1
    outer loop
      vertex 0 40.5455 32
      vertex 15 37.8182 32
      vertex 15 40.5455 32
    endloop
  endfacet
  facet normal 0 0 1
    outer loop
      vertex 15 37.8182 32
      vertex 0 40.5455 32
      vertex 0 37.8182 32
    endloop
  endfacet
  facet normal -0 0 1
    outer loop
      vertex 0 45.2727 32
      vertex 15 42.5455 32
      vertex 15 45.2727 32
    endloop
  endfacet
  facet normal 0 0 1
    outer loop
      vertex 15 42.5455 32
      vertex 0 45.2727 32
      vertex 0 42.5455 32
    endloop
  endfacet
  facet normal 1 0 0
    outer loop
      vertex 15 2.72727 32
      vertex 15 0 32
      vertex 15 2.72727 2.001
    endloop
  endfacet
  facet normal 1 0 0
    outer loop
      vertex 15 7.45455 32
      vertex 15 4.72727 32
      vertex 15 7.45455 2.001
    endloop
  endfacet
  facet normal 1 0 0
    outer loop
      vertex 15 12.1818 32
      vertex 15 9.45455 32
      vertex 15 12.1818 2.001
    endloop
  endfacet
  facet normal 1 0 0
    outer loop
      vertex 15 16.9091 32
      vertex 15 14.1818 32
      vertex 15 16.9091 2.001
    endloop
  endfacet
  facet normal 1 0 0
    outer loop
      vertex 15 21.6364 32
      vertex 15 18.9091 32
      vertex 15 21.6364 2.001
    endloop
  endfacet
  facet normal 1 0 0
    outer loop
      vertex 15 26.3636 32
      vertex 15 23.6364 32
      vertex 15 26.3636 2.001
    endloop
  endfacet
  facet normal 1 0 0
    outer loop
      vertex 15 31.0909 32
      vertex 15 28.3636 32
      vertex 15 31.0909 2.001
    endloop
  endfacet
  facet normal 1 0 0
    outer loop
      vertex 15 35.8182 32
      vertex 15 33.0909 32
      vertex 15 35.8182 2.001
    endloop
  endfacet
  facet normal 1 0 0
    outer loop
      vertex 15 40.5455 32
      vertex 15 37.8182 32
      vertex 15 40.5455 2.001
    endloop
  endfacet
  facet normal 1 0 0
    outer loop
      vertex 15 45.2727 32
      vertex 15 42.5455 32
      vertex 15 45.2727 2.001
    endloop
  endfacet
  facet normal 1 -0 0
    outer loop
      vertex 15 47.2727 32
      vertex 15 50 2
      vertex 15 50 32
    endloop
  endfacet
  facet normal 1 -0 0
    outer loop
      vertex 15 47.2727 2.001
      vertex 15 50 2
      vertex 15 47.2727 32
    endloop
  endfacet
  facet normal 1 -0 0
    outer loop
      vertex 15 45.2727 2.001
      vertex 15 50 2
      vertex 15 47.2727 2.001
    endloop
  endfacet
  facet normal 1 0 0
    outer loop
      vertex 15 42.5455 2.001
      vertex 15 45.2727 2.001
      vertex 15 42.5455 32
    endloop
  endfacet
  facet normal 1 -0 0
    outer loop
      vertex 15 42.5455 2.001
      vertex 15 50 2
      vertex 15 45.2727 2.001
    endloop
  endfacet
  facet normal 1 -0 0
    outer loop
      vertex 15 40.5455 2.001
      vertex 15 50 2
      vertex 15 42.5455 2.001
    endloop
  endfacet
  facet normal 1 0 0
    outer loop
      vertex 15 37.8182 2.001
      vertex 15 40.5455 2.001
      vertex 15 37.8182 32
    endloop
  endfacet
  facet normal 1 -0 0
    outer loop
      vertex 15 37.8182 2.001
      vertex 15 50 2
      vertex 15 40.5455 2.001
    endloop
  endfacet
  facet normal 1 -0 0
    outer loop
      vertex 15 35.8182 2.001
      vertex 15 50 2
      vertex 15 37.8182 2.001
    endloop
  endfacet
  facet normal 1 0 0
    outer loop
      vertex 15 33.0909 2.001
      vertex 15 35.8182 2.001
      vertex 15 33.0909 32
    endloop
  endfacet
  facet normal 1 -0 0
    outer loop
      vertex 15 33.0909 2.001
      vertex 15 50 2
      vertex 15 35.8182 2.001
    endloop
  endfacet
  facet normal 1 -0 0
    outer loop
      vertex 15 31.0909 2.001
      vertex 15 50 2
      vertex 15 33.0909 2.001
    endloop
  endfacet
  facet normal 1 0 0
    outer loop
      vertex 15 28.3636 2.001
      vertex 15 31.0909 2.001
      vertex 15 28.3636 32
    endloop
  endfacet
  facet normal 1 -0 0
    outer loop
      vertex 15 28.3636 2.001
      vertex 15 50 2
      vertex 15 31.0909 2.001
    endloop
  endfacet
  facet normal 1 -0 0
    outer loop
      vertex 15 26.3636 2.001
      vertex 15 50 2
      vertex 15 28.3636 2.001
    endloop
  endfacet
  facet normal 1 0 0
    outer loop
      vertex 15 23.6364 2.001
      vertex 15 26.3636 2.001
      vertex 15 23.6364 32
    endloop
  endfacet
  facet normal 1 -0 0
    outer loop
      vertex 15 23.6364 2.001
      vertex 15 50 2
      vertex 15 26.3636 2.001
    endloop
  endfacet
  facet normal 1 -0 0
    outer loop
      vertex 15 21.6364 2.001
      vertex 15 50 2
      vertex 15 23.6364 2.001
    endloop
  endfacet
  facet normal 1 0 0
    outer loop
      vertex 15 18.9091 2.001
      vertex 15 21.6364 2.001
      vertex 15 18.9091 32
    endloop
  endfacet
  facet normal 1 -0 0
    outer loop
      vertex 15 18.9091 2.001
      vertex 15 50 2
      vertex 15 21.6364 2.001
    endloop
  endfacet
  facet normal 1 -0 0
    outer loop
      vertex 15 16.9091 2.001
      vertex 15 50 2
      vertex 15 18.9091 2.001
    endloop
  endfacet
  facet normal 1 0 0
    outer loop
      vertex 15 14.1818 2.001
      vertex 15 16.9091 2.001
      vertex 15 14.1818 32
    endloop
  endfacet
  facet normal 1 -0 0
    outer loop
      vertex 15 14.1818 2.001
      vertex 15 50 2
      vertex 15 16.9091 2.001
    endloop
  endfacet
  facet normal 1 -0 0
    outer loop
      vertex 15 12.1818 2.001
      vertex 15 50 2
      vertex 15 14.1818 2.001
    endloop
  endfacet
  facet normal 1 0 0
    outer loop
      vertex 15 9.45455 2.001
      vertex 15 12.1818 2.001
      vertex 15 9.45455 32
    endloop
  endfacet
  facet normal 1 -0 0
    outer loop
      vertex 15 9.45455 2.001
      vertex 15 50 2
      vertex 15 12.1818 2.001
    endloop
  endfacet
  facet normal 1 -0 0
    outer loop
      vertex 15 7.45455 2.001
      vertex 15 50 2
      vertex 15 9.45455 2.001
    endloop
  endfacet
  facet normal 1 0 0
    outer loop
      vertex 15 4.72727 2.001
      vertex 15 7.45455 2.001
      vertex 15 4.72727 32
    endloop
  endfacet
  facet normal 1 -0 0
    outer loop
      vertex 15 4.72727 2.001
      vertex 15 50 2
      vertex 15 7.45455 2.001
    endloop
  endfacet
  facet normal 1 -0 0
    outer loop
      vertex 15 2.72727 2.001
      vertex 15 50 2
      vertex 15 4.72727 2.001
    endloop
  endfacet
  facet normal 1 0 0
    outer loop
      vertex 15 2.72727 2.001
      vertex 15 0 2
      vertex 15 50 2
    endloop
  endfacet
  facet normal 1 0 0
    outer loop
      vertex 15 0 2
      vertex 15 2.72727 2.001
      vertex 15 0 32
    endloop
  endfacet
  facet normal -1 0 0
    outer loop
      vertex 25 50 2
      vertex 25 47.2727 2.001
      vertex 25 50 32
    endloop
  endfacet
  facet normal -1 0 0
    outer loop
      vertex 25 50 2
      vertex 25 45.2727 2.001
      vertex 25 47.2727 2.001
    endloop
  endfacet
  facet normal -1 0 0
    outer loop
      vertex 25 45.2727 2.001
      vertex 25 42.5455 2.001
      vertex 25 45.2727 32
    endloop
  endfacet
  facet normal -1 0 0
    outer loop
      vertex 25 50 2
      vertex 25 42.5455 2.001
      vertex 25 45.2727 2.001
    endloop
  endfacet
  facet normal -1 0 0
    outer loop
      vertex 25 50 2
      vertex 25 40.5455 2.001
      vertex 25 42.5455 2.001
    endloop
  endfacet
  facet normal -1 0 0
    outer loop
      vertex 25 40.5455 2.001
      vertex 25 37.8182 2.001
      vertex 25 40.5455 32
    endloop
  endfacet
  facet normal -1 0 0
    outer loop
      vertex 25 50 2
      vertex 25 37.8182 2.001
      vertex 25 40.5455 2.001
    endloop
  endfacet
  facet normal -1 0 0
    outer loop
      vertex 25 50 2
      vertex 25 35.8182 2.001
      vertex 25 37.8182 2.001
    endloop
  endfacet
  facet normal -1 0 0
    outer loop
      vertex 25 35.8182 2.001
      vertex 25 33.0909 2.001
      vertex 25 35.8182 32
    endloop
  endfacet
  facet normal -1 0 0
    outer loop
      vertex 25 50 2
      vertex 25 33.0909 2.001
      vertex 25 35.8182 2.001
    endloop
  endfacet
  facet normal -1 0 0
    outer loop
      vertex 25 50 2
      vertex 25 31.0909 2.001
      vertex 25 33.0909 2.001
    endloop
  endfacet
  facet normal -1 0 0
    outer loop
      vertex 25 31.0909 2.001
      vertex 25 28.3636 2.001
      vertex 25 31.0909 32
    endloop
  endfacet
  facet normal -1 0 0
    outer loop
      vertex 25 50 2
      vertex 25 28.3636 2.001
      vertex 25 31.0909 2.001
    endloop
  endfacet
  facet normal -1 0 0
    outer loop
      vertex 25 50 2
      vertex 25 26.3636 2.001
      vertex 25 28.3636 2.001
    endloop
  endfacet
  facet normal -1 0 0
    outer loop
      vertex 25 26.3636 2.001
      vertex 25 23.6364 2.001
      vertex 25 26.3636 32
    endloop
  endfacet
  facet normal -1 0 0
    outer loop
      vertex 25 50 2
      vertex 25 23.6364 2.001
      vertex 25 26.3636 2.001
    endloop
  endfacet
  facet normal -1 0 0
    outer loop
      vertex 25 50 2
      vertex 25 21.6364 2.001
      vertex 25 23.6364 2.001
    endloop
  endfacet
  facet normal -1 0 0
    outer loop
      vertex 25 21.6364 2.001
      vertex 25 18.9091 2.001
      vertex 25 21.6364 32
    endloop
  endfacet
  facet normal -1 0 0
    outer loop
      vertex 25 50 2
      vertex 25 18.9091 2.001
      vertex 25 21.6364 2.001
    endloop
  endfacet
  facet normal -1 0 0
    outer loop
      vertex 25 50 2
      vertex 25 16.9091 2.001
      vertex 25 18.9091 2.001
    endloop
  endfacet
  facet normal -1 0 0
    outer loop
      vertex 25 16.9091 2.001
      vertex 25 14.1818 2.001
      vertex 25 16.9091 32
    endloop
  endfacet
  facet normal -1 0 0
    outer loop
      vertex 25 50 2
      vertex 25 14.1818 2.001
      vertex 25 16.9091 2.001
    endloop
  endfacet
  facet normal -1 0 0
    outer loop
      vertex 25 50 2
      vertex 25 12.1818 2.001
      vertex 25 14.1818 2.001
    endloop
  endfacet
  facet normal -1 0 0
    outer loop
      vertex 25 12.1818 2.001
      vertex 25 9.45455 2.001
      vertex 25 12.1818 32
    endloop
  endfacet
  facet normal -1 0 0
    outer loop
      vertex 25 50 2
      vertex 25 9.45455 2.001
      vertex 25 12.1818 2.001
    endloop
  endfacet
  facet normal -1 0 0
    outer loop
      vertex 25 50 2
      vertex 25 7.45455 2.001
      vertex 25 9.45455 2.001
    endloop
  endfacet
  facet normal -1 0 0
    outer loop
      vertex 25 7.45455 2.001
      vertex 25 4.72727 2.001
      vertex 25 7.45455 32
    endloop
  endfacet
  facet normal -1 0 0
    outer loop
      vertex 25 50 2
      vertex 25 4.72727 2.001
      vertex 25 7.45455 2.001
    endloop
  endfacet
  facet normal -1 0 0
    outer loop
      vertex 25 50 2
      vertex 25 2.72727 2.001
      vertex 25 4.72727 2.001
    endloop
  endfacet
  facet normal -1 0 0
    outer loop
      vertex 25 0 2
      vertex 25 2.72727 2.001
      vertex 25 50 2
    endloop
  endfacet
  facet normal -1 0 0
    outer loop
      vertex 25 0 2
      vertex 25 2.72727 32
      vertex 25 2.72727 2.001
    endloop
  endfacet
  facet normal -1 -0 0
    outer loop
      vertex 25 2.72727 32
      vertex 25 0 2
      vertex 25 0 32
    endloop
  endfacet
  facet normal -1 -0 0
    outer loop
      vertex 25 50 32
      vertex 25 47.2727 2.001
      vertex 25 47.2727 32
    endloop
  endfacet
  facet normal -1 -0 0
    outer loop
      vertex 25 45.2727 32
      vertex 25 42.5455 2.001
      vertex 25 42.5455 32
    endloop
  endfacet
  facet normal -1 -0 0
    outer loop
      vertex 25 40.5455 32
      vertex 25 37.8182 2.001
      vertex 25 37.8182 32
    endloop
  endfacet
  facet normal -1 -0 0
    outer loop
      vertex 25 35.8182 32
      vertex 25 33.0909 2.001
      vertex 25 33.0909 32
    endloop
  endfacet
  facet normal -1 -0 0
    outer loop
      vertex 25 31.0909 32
      vertex 25 28.3636 2.001
      vertex 25 28.3636 32
    endloop
  endfacet
  facet normal -1 -0 0
    outer loop
      vertex 25 26.3636 32
      vertex 25 23.6364 2.001
      vertex 25 23.6364 32
    endloop
  endfacet
  facet normal -1 -0 0
    outer loop
      vertex 25 21.6364 32
      vertex 25 18.9091 2.001
      vertex 25 18.9091 32
    endloop
  endfacet
  facet normal -1 -0 0
    outer loop
      vertex 25 16.9091 32
      vertex 25 14.1818 2.001
      vertex 25 14.1818 32
    endloop
  endfacet
  facet normal -1 -0 0
    outer loop
      vertex 25 12.1818 32
      vertex 25 9.45455 2.001
      vertex 25 9.45455 32
    endloop
  endfacet
  facet normal -1 -0 0
    outer loop
      vertex 25 7.45455 32
      vertex 25 4.72727 2.001
      vertex 25 4.72727 32
    endloop
  endfacet
  facet normal -0 0 1
    outer loop
      vertex 25 2.72727 32
      vertex 40 0 32
      vertex 40 2.72727 32
    endloop
  endfacet
  facet normal 0 0 1
    outer loop
      vertex 40 0 32
      vertex 25 2.72727 32
      vertex 25 0 32
    endloop
  endfacet
  facet normal -0 0 1
    outer loop
      vertex 25 50 32
      vertex 40 47.2727 32
      vertex 40 50 32
    endloop
  endfacet
  facet normal 0 0 1
    outer loop
      vertex 40 47.2727 32
      vertex 25 50 32
      vertex 25 47.2727 32
    endloop
  endfacet
  facet normal -0 0 1
    outer loop
      vertex 25 7.45455 32
      vertex 40 4.72727 32
      vertex 40 7.45455 32
    endloop
  endfacet
  facet normal 0 0 1
    outer loop
      vertex 40 4.72727 32
      vertex 25 7.45455 32
      vertex 25 4.72727 32
    endloop
  endfacet
  facet normal -0 0 1
    outer loop
      vertex 25 12.1818 32
      vertex 40 9.45455 32
      vertex 40 12.1818 32
    endloop
  endfacet
  facet normal 0 0 1
    outer loop
      vertex 40 9.45455 32
      vertex 25 12.1818 32
      vertex 25 9.45455 32
    endloop
  endfacet
  facet normal -0 0 1
    outer loop
      vertex 25 16.9091 32
      vertex 40 14.1818 32
      vertex 40 16.9091 32
    endloop
  endfacet
  facet normal 0 0 1
    outer loop
      vertex 40 14.1818 32
      vertex 25 16.9091 32
      vertex 25 14.1818 32
    endloop
  endfacet
  facet normal -0 0 1
    outer loop
      vertex 25 21.6364 32
      vertex 40 18.9091 32
      vertex 40 21.6364 32
    endloop
  endfacet
  facet normal 0 0 1
    outer loop
      vertex 40 18.9091 32
      vertex 25 21.6364 32
      vertex 25 18.9091 32
    endloop
  endfacet
  facet normal -0 0 1
    outer loop
      vertex 25 26.3636 32
      vertex 40 23.6364 32
      vertex 40 26.3636 32
    endloop
  endfacet
  facet normal 0 0 1
    outer loop
      vertex 40 23.6364 32
      vertex 25 26.3636 32
      vertex 25 23.6364 32
    endloop
  endfacet
  facet normal -0 0 1
    outer loop
      vertex 25 31.0909 32
      vertex 40 28.3636 32
      vertex 40 31.0909 32
    endloop
  endfacet
  facet normal 0 0 1
    outer loop
      vertex 40 28.3636 32
      vertex 25 31.0909 32
      vertex 25 28.3636 32
    endloop
  endfacet
  facet normal -0 0 1
    outer loop
      vertex 25 35.8182 32
      vertex 40 33.0909 32
      vertex 40 35.8182 32
    endloop
  endfacet
  facet normal 0 0 1
    outer loop
      vertex 40 33.0909 32
      vertex 25 35.8182 32
      vertex 25 33.0909 32
    endloop
  endfacet
  facet normal -0 0 1
    outer loop
      vertex 25 40.5455 32
      vertex 40 37.8182 32
      vertex 40 40.5455 32
    endloop
  endfacet
  facet normal 0 0 1
    outer loop
      vertex 40 37.8182 32
      vertex 25 40.5455 32
      vertex 25 37.8182 32
    endloop
  endfacet
  facet normal -0 0 1
    outer loop
      vertex 25 45.2727 32
      vertex 40 42.5455 32
      vertex 40 45.2727 32
    endloop
  endfacet
  facet normal 0 0 1
    outer loop
      vertex 40 42.5455 32
      vertex 25 45.2727 32
      vertex 25 42.5455 32
    endloop
  endfacet
  facet normal 0 -1 0
    outer loop
      vertex 0 4.72727 2.001
      vertex 15 4.72727 32
      vertex 0 4.72727 32
    endloop
  endfacet
  facet normal 0 -1 -0
    outer loop
      vertex 15 4.72727 32
      vertex 0 4.72727 2.001
      vertex 15 4.72727 2.001
    endloop
  endfacet
  facet normal 0 -1 0
    outer loop
      vertex 25 4.72727 2.001
      vertex 40 4.72727 32
      vertex 25 4.72727 32
    endloop
  endfacet
  facet normal 0 -1 -0
    outer loop
      vertex 40 4.72727 32
      vertex 25 4.72727 2.001
      vertex 40 4.72727 2.001
    endloop
  endfacet
  facet normal -0 0 1
    outer loop
      vertex 0 4.72727 2.001
      vertex 15 2.72727 2.001
      vertex 15 4.72727 2.001
    endloop
  endfacet
  facet normal 0 0 1
    outer loop
      vertex 15 2.72727 2.001
      vertex 0 4.72727 2.001
      vertex 0 2.72727 2.001
    endloop
  endfacet
  facet normal -0 0 1
    outer loop
      vertex 25 4.72727 2.001
      vertex 40 2.72727 2.001
      vertex 40 4.72727 2.001
    endloop
  endfacet
  facet normal 0 0 1
    outer loop
      vertex 40 2.72727 2.001
      vertex 25 4.72727 2.001
      vertex 25 2.72727 2.001
    endloop
  endfacet
  facet normal 0 1 -0
    outer loop
      vertex 15 2.72727 2.001
      vertex 0 2.72727 32
      vertex 15 2.72727 32
    endloop
  endfacet
  facet normal 0 1 0
    outer loop
      vertex 0 2.72727 32
      vertex 15 2.72727 2.001
      vertex 0 2.72727 2.001
    endloop
  endfacet
  facet normal 0 1 -0
    outer loop
      vertex 40 2.72727 2.001
      vertex 25 2.72727 32
      vertex 40 2.72727 32
    endloop
  endfacet
  facet normal 0 1 0
    outer loop
      vertex 25 2.72727 32
      vertex 40 2.72727 2.001
      vertex 25 2.72727 2.001
    endloop
  endfacet
  facet normal 0 -1 0
    outer loop
      vertex 0 9.45455 2.001
      vertex 15 9.45455 32
      vertex 0 9.45455 32
    endloop
  endfacet
  facet normal 0 -1 -0
    outer loop
      vertex 15 9.45455 32
      vertex 0 9.45455 2.001
      vertex 15 9.45455 2.001
    endloop
  endfacet
  facet normal 0 -1 0
    outer loop
      vertex 25 9.45455 2.001
      vertex 40 9.45455 32
      vertex 25 9.45455 32
    endloop
  endfacet
  facet normal 0 -1 -0
    outer loop
      vertex 40 9.45455 32
      vertex 25 9.45455 2.001
      vertex 40 9.45455 2.001
    endloop
  endfacet
  facet normal -0 0 1
    outer loop
      vertex 0 9.45455 2.001
      vertex 15 7.45455 2.001
      vertex 15 9.45455 2.001
    endloop
  endfacet
  facet normal 0 0 1
    outer loop
      vertex 15 7.45455 2.001
      vertex 0 9.45455 2.001
      vertex 0 7.45455 2.001
    endloop
  endfacet
  facet normal -0 0 1
    outer loop
      vertex 25 9.45455 2.001
      vertex 40 7.45455 2.001
      vertex 40 9.45455 2.001
    endloop
  endfacet
  facet normal 0 0 1
    outer loop
      vertex 40 7.45455 2.001
      vertex 25 9.45455 2.001
      vertex 25 7.45455 2.001
    endloop
  endfacet
  facet normal 0 1 -0
    outer loop
      vertex 15 7.45455 2.001
      vertex 0 7.45455 32
      vertex 15 7.45455 32
    endloop
  endfacet
  facet normal 0 1 0
    outer loop
      vertex 0 7.45455 32
      vertex 15 7.45455 2.001
      vertex 0 7.45455 2.001
    endloop
  endfacet
  facet normal 0 1 -0
    outer loop
      vertex 40 7.45455 2.001
      vertex 25 7.45455 32
      vertex 40 7.45455 32
    endloop
  endfacet
  facet normal 0 1 0
    outer loop
      vertex 25 7.45455 32
      vertex 40 7.45455 2.001
      vertex 25 7.45455 2.001
    endloop
  endfacet
  facet normal -0 0 1
    outer loop
      vertex 0 14.1818 2.001
      vertex 15 12.1818 2.001
      vertex 15 14.1818 2.001
    endloop
  endfacet
  facet normal 0 0 1
    outer loop
      vertex 15 12.1818 2.001
      vertex 0 14.1818 2.001
      vertex 0 12.1818 2.001
    endloop
  endfacet
  facet normal -0 0 1
    outer loop
      vertex 25 14.1818 2.001
      vertex 40 12.1818 2.001
      vertex 40 14.1818 2.001
    endloop
  endfacet
  facet normal 0 0 1
    outer loop
      vertex 40 12.1818 2.001
      vertex 25 14.1818 2.001
      vertex 25 12.1818 2.001
    endloop
  endfacet
  facet normal 0 1 -0
    outer loop
      vertex 15 12.1818 2.001
      vertex 0 12.1818 32
      vertex 15 12.1818 32
    endloop
  endfacet
  facet normal 0 1 0
    outer loop
      vertex 0 12.1818 32
      vertex 15 12.1818 2.001
      vertex 0 12.1818 2.001
    endloop
  endfacet
  facet normal 0 1 -0
    outer loop
      vertex 40 12.1818 2.001
      vertex 25 12.1818 32
      vertex 40 12.1818 32
    endloop
  endfacet
  facet normal 0 1 0
    outer loop
      vertex 25 12.1818 32
      vertex 40 12.1818 2.001
      vertex 25 12.1818 2.001
    endloop
  endfacet
  facet normal 0 -1 0
    outer loop
      vertex 0 14.1818 2.001
      vertex 15 14.1818 32
      vertex 0 14.1818 32
    endloop
  endfacet
  facet normal 0 -1 -0
    outer loop
      vertex 15 14.1818 32
      vertex 0 14.1818 2.001
      vertex 15 14.1818 2.001
    endloop
  endfacet
  facet normal 0 -1 0
    outer loop
      vertex 25 14.1818 2.001
      vertex 40 14.1818 32
      vertex 25 14.1818 32
    endloop
  endfacet
  facet normal 0 -1 -0
    outer loop
      vertex 40 14.1818 32
      vertex 25 14.1818 2.001
      vertex 40 14.1818 2.001
    endloop
  endfacet
  facet normal -0 0 1
    outer loop
      vertex 0 18.9091 2.001
      vertex 15 16.9091 2.001
      vertex 15 18.9091 2.001
    endloop
  endfacet
  facet normal 0 0 1
    outer loop
      vertex 15 16.9091 2.001
      vertex 0 18.9091 2.001
      vertex 0 16.9091 2.001
    endloop
  endfacet
  facet normal -0 0 1
    outer loop
      vertex 25 18.9091 2.001
      vertex 40 16.9091 2.001
      vertex 40 18.9091 2.001
    endloop
  endfacet
  facet normal 0 0 1
    outer loop
      vertex 40 16.9091 2.001
      vertex 25 18.9091 2.001
      vertex 25 16.9091 2.001
    endloop
  endfacet
  facet normal 0 1 -0
    outer loop
      vertex 15 16.9091 2.001
      vertex 0 16.9091 32
      vertex 15 16.9091 32
    endloop
  endfacet
  facet normal 0 1 0
    outer loop
      vertex 0 16.9091 32
      vertex 15 16.9091 2.001
      vertex 0 16.9091 2.001
    endloop
  endfacet
  facet normal 0 1 -0
    outer loop
      vertex 40 16.9091 2.001
      vertex 25 16.9091 32
      vertex 40 16.9091 32
    endloop
  endfacet
  facet normal 0 1 0
    outer loop
      vertex 25 16.9091 32
      vertex 40 16.9091 2.001
      vertex 25 16.9091 2.001
    endloop
  endfacet
  facet normal 0 -1 0
    outer loop
      vertex 0 18.9091 2.001
      vertex 15 18.9091 32
      vertex 0 18.9091 32
    endloop
  endfacet
  facet normal 0 -1 -0
    outer loop
      vertex 15 18.9091 32
      vertex 0 18.9091 2.001
      vertex 15 18.9091 2.001
    endloop
  endfacet
  facet normal 0 -1 0
    outer loop
      vertex 25 18.9091 2.001
      vertex 40 18.9091 32
      vertex 25 18.9091 32
    endloop
  endfacet
  facet normal 0 -1 -0
    outer loop
      vertex 40 18.9091 32
      vertex 25 18.9091 2.001
      vertex 40 18.9091 2.001
    endloop
  endfacet
  facet normal -0 0 1
    outer loop
      vertex 0 23.6364 2.001
      vertex 15 21.6364 2.001
      vertex 15 23.6364 2.001
    endloop
  endfacet
  facet normal 0 0 1
    outer loop
      vertex 15 21.6364 2.001
      vertex 0 23.6364 2.001
      vertex 0 21.6364 2.001
    endloop
  endfacet
  facet normal -0 0 1
    outer loop
      vertex 25 23.6364 2.001
      vertex 40 21.6364 2.001
      vertex 40 23.6364 2.001
    endloop
  endfacet
  facet normal 0 0 1
    outer loop
      vertex 40 21.6364 2.001
      vertex 25 23.6364 2.001
      vertex 25 21.6364 2.001
    endloop
  endfacet
  facet normal 0 1 -0
    outer loop
      vertex 15 21.6364 2.001
      vertex 0 21.6364 32
      vertex 15 21.6364 32
    endloop
  endfacet
  facet normal 0 1 0
    outer loop
      vertex 0 21.6364 32
      vertex 15 21.6364 2.001
      vertex 0 21.6364 2.001
    endloop
  endfacet
  facet normal 0 1 -0
    outer loop
      vertex 40 21.6364 2.001
      vertex 25 21.6364 32
      vertex 40 21.6364 32
    endloop
  endfacet
  facet normal 0 1 0
    outer loop
      vertex 25 21.6364 32
      vertex 40 21.6364 2.001
      vertex 25 21.6364 2.001
    endloop
  endfacet
  facet normal 0 -1 0
    outer loop
      vertex 0 23.6364 2.001
      vertex 15 23.6364 32
      vertex 0 23.6364 32
    endloop
  endfacet
  facet normal 0 -1 -0
    outer loop
      vertex 15 23.6364 32
      vertex 0 23.6364 2.001
      vertex 15 23.6364 2.001
    endloop
  endfacet
  facet normal 0 -1 0
    outer loop
      vertex 25 23.6364 2.001
      vertex 40 23.6364 32
      vertex 25 23.6364 32
    endloop
  endfacet
  facet normal 0 -1 -0
    outer loop
      vertex 40 23.6364 32
      vertex 25 23.6364 2.001
      vertex 40 23.6364 2.001
    endloop
  endfacet
  facet normal 0 -1 0
    outer loop
      vertex 0 28.3636 2.001
      vertex 15 28.3636 32
      vertex 0 28.3636 32
    endloop
  endfacet
  facet normal 0 -1 -0
    outer loop
      vertex 15 28.3636 32
      vertex 0 28.3636 2.001
      vertex 15 28.3636 2.001
    endloop
  endfacet
  facet normal 0 -1 0
    outer loop
      vertex 25 28.3636 2.001
      vertex 40 28.3636 32
      vertex 25 28.3636 32
    endloop
  endfacet
  facet normal 0 -1 -0
    outer loop
      vertex 40 28.3636 32
      vertex 25 28.3636 2.001
      vertex 40 28.3636 2.001
    endloop
  endfacet
  facet normal -0 0 1
    outer loop
      vertex 0 28.3636 2.001
      vertex 15 26.3636 2.001
      vertex 15 28.3636 2.001
    endloop
  endfacet
  facet normal 0 0 1
    outer loop
      vertex 15 26.3636 2.001
      vertex 0 28.3636 2.001
      vertex 0 26.3636 2.001
    endloop
  endfacet
  facet normal -0 0 1
    outer loop
      vertex 25 28.3636 2.001
      vertex 40 26.3636 2.001
      vertex 40 28.3636 2.001
    endloop
  endfacet
  facet normal 0 0 1
    outer loop
      vertex 40 26.3636 2.001
      vertex 25 28.3636 2.001
      vertex 25 26.3636 2.001
    endloop
  endfacet
  facet normal 0 1 -0
    outer loop
      vertex 15 26.3636 2.001
      vertex 0 26.3636 32
      vertex 15 26.3636 32
    endloop
  endfacet
  facet normal 0 1 0
    outer loop
      vertex 0 26.3636 32
      vertex 15 26.3636 2.001
      vertex 0 26.3636 2.001
    endloop
  endfacet
  facet normal 0 1 -0
    outer loop
      vertex 40 26.3636 2.001
      vertex 25 26.3636 32
      vertex 40 26.3636 32
    endloop
  endfacet
  facet normal 0 1 0
    outer loop
      vertex 25 26.3636 32
      vertex 40 26.3636 2.001
      vertex 25 26.3636 2.001
    endloop
  endfacet
  facet normal 0 -1 0
    outer loop
      vertex 0 33.0909 2.001
      vertex 15 33.0909 32
      vertex 0 33.0909 32
    endloop
  endfacet
  facet normal 0 -1 -0
    outer loop
      vertex 15 33.0909 32
      vertex 0 33.0909 2.001
      vertex 15 33.0909 2.001
    endloop
  endfacet
  facet normal 0 -1 0
    outer loop
      vertex 25 33.0909 2.001
      vertex 40 33.0909 32
      vertex 25 33.0909 32
    endloop
  endfacet
  facet normal 0 -1 -0
    outer loop
      vertex 40 33.0909 32
      vertex 25 33.0909 2.001
      vertex 40 33.0909 2.001
    endloop
  endfacet
  facet normal -0 0 1
    outer loop
      vertex 0 33.0909 2.001
      vertex 15 31.0909 2.001
      vertex 15 33.0909 2.001
    endloop
  endfacet
  facet normal 0 0 1
    outer loop
      vertex 15 31.0909 2.001
      vertex 0 33.0909 2.001
      vertex 0 31.0909 2.001
    endloop
  endfacet
  facet normal -0 0 1
    outer loop
      vertex 25 33.0909 2.001
      vertex 40 31.0909 2.001
      vertex 40 33.0909 2.001
    endloop
  endfacet
  facet normal 0 0 1
    outer loop
      vertex 40 31.0909 2.001
      vertex 25 33.0909 2.001
      vertex 25 31.0909 2.001
    endloop
  endfacet
  facet normal 0 1 -0
    outer loop
      vertex 15 31.0909 2.001
      vertex 0 31.0909 32
      vertex 15 31.0909 32
    endloop
  endfacet
  facet normal 0 1 0
    outer loop
      vertex 0 31.0909 32
      vertex 15 31.0909 2.001
      vertex 0 31.0909 2.001
    endloop
  endfacet
  facet normal 0 1 -0
    outer loop
      vertex 40 31.0909 2.001
      vertex 25 31.0909 32
      vertex 40 31.0909 32
    endloop
  endfacet
  facet normal 0 1 0
    outer loop
      vertex 25 31.0909 32
      vertex 40 31.0909 2.001
      vertex 25 31.0909 2.001
    endloop
  endfacet
  facet normal 0 -1 0
    outer loop
      vertex 0 37.8182 2.001
      vertex 15 37.8182 32
      vertex 0 37.8182 32
    endloop
  endfacet
  facet normal 0 -1 -0
    outer loop
      vertex 15 37.8182 32
      vertex 0 37.8182 2.001
      vertex 15 37.8182 2.001
    endloop
  endfacet
  facet normal 0 -1 0
    outer loop
      vertex 25 37.8182 2.001
      vertex 40 37.8182 32
      vertex 25 37.8182 32
    endloop
  endfacet
  facet normal 0 -1 -0
    outer loop
      vertex 40 37.8182 32
      vertex 25 37.8182 2.001
      vertex 40 37.8182 2.001
    endloop
  endfacet
  facet normal -0 0 1
    outer loop
      vertex 0 37.8182 2.001
      vertex 15 35.8182 2.001
      vertex 15 37.8182 2.001
    endloop
  endfacet
  facet normal 0 0 1
    outer loop
      vertex 15 35.8182 2.001
      vertex 0 37.8182 2.001
      vertex 0 35.8182 2.001
    endloop
  endfacet
  facet normal -0 0 1
    outer loop
      vertex 25 37.8182 2.001
      vertex 40 35.8182 2.001
      vertex 40 37.8182 2.001
    endloop
  endfacet
  facet normal 0 0 1
    outer loop
      vertex 40 35.8182 2.001
      vertex 25 37.8182 2.001
      vertex 25 35.8182 2.001
    endloop
  endfacet
  facet normal 0 1 -0
    outer loop
      vertex 15 35.8182 2.001
      vertex 0 35.8182 32
      vertex 15 35.8182 32
    endloop
  endfacet
  facet normal 0 1 0
    outer loop
      vertex 0 35.8182 32
      vertex 15 35.8182 2.001
      vertex 0 35.8182 2.001
    endloop
  endfacet
  facet normal 0 1 -0
    outer loop
      vertex 40 35.8182 2.001
      vertex 25 35.8182 32
      vertex 40 35.8182 32
    endloop
  endfacet
  facet normal 0 1 0
    outer loop
      vertex 25 35.8182 32
      vertex 40 35.8182 2.001
      vertex 25 35.8182 2.001
    endloop
  endfacet
  facet normal 0 -1 0
    outer loop
      vertex 0 42.5455 2.001
      vertex 15 42.5455 32
      vertex 0 42.5455 32
    endloop
  endfacet
  facet normal 0 -1 -0
    outer loop
      vertex 15 42.5455 32
      vertex 0 42.5455 2.001
      vertex 15 42.5455 2.001
    endloop
  endfacet
  facet normal 0 -1 0
    outer loop
      vertex 25 42.5455 2.001
      vertex 40 42.5455 32
      vertex 25 42.5455 32
    endloop
  endfacet
  facet normal 0 -1 -0
    outer loop
      vertex 40 42.5455 32
      vertex 25 42.5455 2.001
      vertex 40 42.5455 2.001
    endloop
  endfacet
  facet normal -0 0 1
    outer loop
      vertex 0 42.5455 2.001
      vertex 15 40.5455 2.001
      vertex 15 42.5455 2.001
    endloop
  endfacet
  facet normal 0 0 1
    outer loop
      vertex 15 40.5455 2.001
      vertex 0 42.5455 2.001
      vertex 0 40.5455 2.001
    endloop
  endfacet
  facet normal -0 0 1
    outer loop
      vertex 25 42.5455 2.001
      vertex 40 40.5455 2.001
      vertex 40 42.5455 2.001
    endloop
  endfacet
  facet normal 0 0 1
    outer loop
      vertex 40 40.5455 2.001
      vertex 25 42.5455 2.001
      vertex 25 40.5455 2.001
    endloop
  endfacet
  facet normal 0 1 -0
    outer loop
      vertex 15 40.5455 2.001
      vertex 0 40.5455 32
      vertex 15 40.5455 32
    endloop
  endfacet
  facet normal 0 1 0
    outer loop
      vertex 0 40.5455 32
      vertex 15 40.5455 2.001
      vertex 0 40.5455 2.001
    endloop
  endfacet
  facet normal 0 1 -0
    outer loop
      vertex 40 40.5455 2.001
      vertex 25 40.5455 32
      vertex 40 40.5455 32
    endloop
  endfacet
  facet normal 0 1 0
    outer loop
      vertex 25 40.5455 32
      vertex 40 40.5455 2.001
      vertex 25 40.5455 2.001
    endloop
  endfacet
  facet normal -0 0 1
    outer loop
      vertex 0 47.2727 2.001
      vertex 15 45.2727 2.001
      vertex 15 47.2727 2.001
    endloop
  endfacet
  facet normal 0 0 1
    outer loop
      vertex 15 45.2727 2.001
      vertex 0 47.2727 2.001
      vertex 0 45.2727 2.001
    endloop
  endfacet
  facet normal -0 0 1
    outer loop
      vertex 25 47.2727 2.001
      vertex 40 45.2727 2.001
      vertex 40 47.2727 2.001
    endloop
  endfacet
  facet normal 0 0 1
    outer loop
      vertex 40 45.2727 2.001
      vertex 25 47.2727 2.001
      vertex 25 45.2727 2.001
    endloop
  endfacet
  facet normal 0 1 -0
    outer loop
      vertex 15 45.2727 2.001
      vertex 0 45.2727 32
      vertex 15 45.2727 32
    endloop
  endfacet
  facet normal 0 1 0
    outer loop
      vertex 0 45.2727 32
      vertex 15 45.2727 2.001
      vertex 0 45.2727 2.001
    endloop
  endfacet
  facet normal 0 1 -0
    outer loop
      vertex 40 45.2727 2.001
      vertex 25 45.2727 32
      vertex 40 45.2727 32
    endloop
  endfacet
  facet normal 0 1 0
    outer loop
      vertex 25 45.2727 32
      vertex 40 45.2727 2.001
      vertex 25 45.2727 2.001
    endloop
  endfacet
  facet normal 0 -1 0
    outer loop
      vertex 0 47.2727 2.001
      vertex 15 47.2727 32
      vertex 0 47.2727 32
    endloop
  endfacet
  facet normal 0 -1 -0
    outer loop
      vertex 15 47.2727 32
      vertex 0 47.2727 2.001
      vertex 15 47.2727 2.001
    endloop
  endfacet
  facet normal 0 -1 0
    outer loop
      vertex 25 47.2727 2.001
      vertex 40 47.2727 32
      vertex 25 47.2727 32
    endloop
  endfacet
  facet normal 0 -1 -0
    outer loop
      vertex 40 47.2727 32
      vertex 25 47.2727 2.001
      vertex 40 47.2727 2.001
    endloop
  endfacet
endsolid OpenSCAD_Model
