solid OpenSCAD_Model
  facet normal -0.995184 -0.0980238 0
    outer loop
      vertex 2.5 0 0
      vertex 2.45196 0.487725 10
      vertex 2.45196 0.487725 0
    endloop
  endfacet
  facet normal -0.995184 -0.0980238 0
    outer loop
      vertex 2.45196 0.487725 10
      vertex 2.5 0 0
      vertex 2.5 0 10
    endloop
  endfacet
  facet normal -0.0980238 -0.995184 0
    outer loop
      vertex 0 2.5 0
      vertex 0.487725 2.45196 10
      vertex 0 2.5 10
    endloop
  endfacet
  facet normal -0.0980238 -0.995184 -0
    outer loop
      vertex 0.487725 2.45196 10
      vertex 0 2.5 0
      vertex 0.487725 2.45196 0
    endloop
  endfacet
  facet normal 0.0980238 0.995184 -0
    outer loop
      vertex 0 -2.5 0
      vertex -0.487725 -2.45196 10
      vertex 0 -2.5 10
    endloop
  endfacet
  facet normal 0.0980238 0.995184 0
    outer loop
      vertex -0.487725 -2.45196 10
      vertex 0 -2.5 0
      vertex -0.487725 -2.45196 0
    endloop
  endfacet
  facet normal -0.773016 -0.634386 0
    outer loop
      vertex 2.07867 1.38893 0
      vertex 1.76777 1.76777 10
      vertex 1.76777 1.76777 0
    endloop
  endfacet
  facet normal -0.773016 -0.634386 0
    outer loop
      vertex 1.76777 1.76777 10
      vertex 2.07867 1.38893 0
      vertex 2.07867 1.38893 10
    endloop
  endfacet
  facet normal 0.634412 -0.772995 0
    outer loop
      vertex -1.476 2.00721 0
      vertex -1.38893 2.07867 10
      vertex -1.476 2.00721 10
    endloop
  endfacet
  facet normal 0.634412 -0.772995 0
    outer loop
      vertex -1.38893 2.07867 10
      vertex -1.476 2.00721 0
      vertex -1.38893 2.07867 0
    endloop
  endfacet
  facet normal 0.290276 -0.956943 0
    outer loop
      vertex -0.956708 2.3097 0
      vertex -0.487725 2.45196 10
      vertex -0.956708 2.3097 10
    endloop
  endfacet
  facet normal 0.290276 -0.956943 0
    outer loop
      vertex -0.487725 2.45196 10
      vertex -0.956708 2.3097 0
      vertex -0.487725 2.45196 0
    endloop
  endfacet
  facet normal -0.881919 -0.471401 0
    outer loop
      vertex 2.3097 0.956708 0
      vertex 2.07867 1.38893 10
      vertex 2.07867 1.38893 0
    endloop
  endfacet
  facet normal -0.881919 -0.471401 0
    outer loop
      vertex 2.07867 1.38893 10
      vertex 2.3097 0.956708 0
      vertex 2.3097 0.956708 10
    endloop
  endfacet
  facet normal -0.956943 -0.290276 0
    outer loop
      vertex 2.45196 0.487725 0
      vertex 2.3097 0.956708 10
      vertex 2.3097 0.956708 0
    endloop
  endfacet
  facet normal -0.956943 -0.290276 0
    outer loop
      vertex 2.3097 0.956708 10
      vertex 2.45196 0.487725 0
      vertex 2.45196 0.487725 10
    endloop
  endfacet
  facet normal -0.471401 -0.881919 0
    outer loop
      vertex 0.956708 2.3097 0
      vertex 1.38893 2.07867 10
      vertex 0.956708 2.3097 10
    endloop
  endfacet
  facet normal -0.471401 -0.881919 -0
    outer loop
      vertex 1.38893 2.07867 10
      vertex 0.956708 2.3097 0
      vertex 1.38893 2.07867 0
    endloop
  endfacet
  facet normal -0.290276 -0.956943 0
    outer loop
      vertex 0.487725 2.45196 0
      vertex 0.956708 2.3097 10
      vertex 0.487725 2.45196 10
    endloop
  endfacet
  facet normal -0.290276 -0.956943 -0
    outer loop
      vertex 0.956708 2.3097 10
      vertex 0.487725 2.45196 0
      vertex 0.956708 2.3097 0
    endloop
  endfacet
  facet normal -0.634386 -0.773016 0
    outer loop
      vertex 1.38893 2.07867 0
      vertex 1.76777 1.76777 10
      vertex 1.38893 2.07867 10
    endloop
  endfacet
  facet normal -0.634386 -0.773016 -0
    outer loop
      vertex 1.76777 1.76777 10
      vertex 1.38893 2.07867 0
      vertex 1.76777 1.76777 0
    endloop
  endfacet
  facet normal 0.471401 -0.881919 0
    outer loop
      vertex -1.38893 2.07867 0
      vertex -0.956708 2.3097 10
      vertex -1.38893 2.07867 10
    endloop
  endfacet
  facet normal 0.471401 -0.881919 0
    outer loop
      vertex -0.956708 2.3097 10
      vertex -1.38893 2.07867 0
      vertex -0.956708 2.3097 0
    endloop
  endfacet
  facet normal 0.0980238 -0.995184 0
    outer loop
      vertex -0.487725 2.45196 0
      vertex 0 2.5 10
      vertex -0.487725 2.45196 10
    endloop
  endfacet
  facet normal 0.0980238 -0.995184 0
    outer loop
      vertex 0 2.5 10
      vertex -0.487725 2.45196 0
      vertex 0 2.5 0
    endloop
  endfacet
  facet normal -0.995184 0.0980238 0
    outer loop
      vertex 2.45196 -0.487725 0
      vertex 2.5 0 10
      vertex 2.5 0 0
    endloop
  endfacet
  facet normal -0.995184 0.0980238 0
    outer loop
      vertex 2.5 0 10
      vertex 2.45196 -0.487725 0
      vertex 2.45196 -0.487725 10
    endloop
  endfacet
  facet normal -0.0980238 0.995184 0
    outer loop
      vertex 0.487725 -2.45196 0
      vertex 0 -2.5 10
      vertex 0.487725 -2.45196 10
    endloop
  endfacet
  facet normal -0.0980238 0.995184 0
    outer loop
      vertex 0 -2.5 10
      vertex 0.487725 -2.45196 0
      vertex 0 -2.5 0
    endloop
  endfacet
  facet normal -0.471401 0.881919 0
    outer loop
      vertex 1.38893 -2.07867 0
      vertex 0.956708 -2.3097 10
      vertex 1.38893 -2.07867 10
    endloop
  endfacet
  facet normal -0.471401 0.881919 0
    outer loop
      vertex 0.956708 -2.3097 10
      vertex 1.38893 -2.07867 0
      vertex 0.956708 -2.3097 0
    endloop
  endfacet
  facet normal 0.634412 0.772995 -0
    outer loop
      vertex -1.38893 -2.07867 0
      vertex -1.476 -2.00721 10
      vertex -1.38893 -2.07867 10
    endloop
  endfacet
  facet normal 0.634412 0.772995 0
    outer loop
      vertex -1.476 -2.00721 10
      vertex -1.38893 -2.07867 0
      vertex -1.476 -2.00721 0
    endloop
  endfacet
  facet normal 0.290276 0.956943 -0
    outer loop
      vertex -0.487725 -2.45196 0
      vertex -0.956708 -2.3097 10
      vertex -0.487725 -2.45196 10
    endloop
  endfacet
  facet normal 0.290276 0.956943 0
    outer loop
      vertex -0.956708 -2.3097 10
      vertex -0.487725 -2.45196 0
      vertex -0.956708 -2.3097 0
    endloop
  endfacet
  facet normal -0.290276 0.956943 0
    outer loop
      vertex 0.956708 -2.3097 0
      vertex 0.487725 -2.45196 10
      vertex 0.956708 -2.3097 10
    endloop
  endfacet
  facet normal -0.290276 0.956943 0
    outer loop
      vertex 0.487725 -2.45196 10
      vertex 0.956708 -2.3097 0
      vertex 0.487725 -2.45196 0
    endloop
  endfacet
  facet normal -0.634386 0.773016 0
    outer loop
      vertex 1.76777 -1.76777 0
      vertex 1.38893 -2.07867 10
      vertex 1.76777 -1.76777 10
    endloop
  endfacet
  facet normal -0.634386 0.773016 0
    outer loop
      vertex 1.38893 -2.07867 10
      vertex 1.76777 -1.76777 0
      vertex 1.38893 -2.07867 0
    endloop
  endfacet
  facet normal -0.773016 0.634386 0
    outer loop
      vertex 1.76777 -1.76777 0
      vertex 2.07867 -1.38893 10
      vertex 2.07867 -1.38893 0
    endloop
  endfacet
  facet normal -0.773016 0.634386 0
    outer loop
      vertex 2.07867 -1.38893 10
      vertex 1.76777 -1.76777 0
      vertex 1.76777 -1.76777 10
    endloop
  endfacet
  facet normal 0.471401 0.881919 -0
    outer loop
      vertex -0.956708 -2.3097 0
      vertex -1.38893 -2.07867 10
      vertex -0.956708 -2.3097 10
    endloop
  endfacet
  facet normal 0.471401 0.881919 0
    outer loop
      vertex -1.38893 -2.07867 10
      vertex -0.956708 -2.3097 0
      vertex -1.38893 -2.07867 0
    endloop
  endfacet
  facet normal -0.956943 0.290276 0
    outer loop
      vertex 2.3097 -0.956708 0
      vertex 2.45196 -0.487725 10
      vertex 2.45196 -0.487725 0
    endloop
  endfacet
  facet normal -0.956943 0.290276 0
    outer loop
      vertex 2.45196 -0.487725 10
      vertex 2.3097 -0.956708 0
      vertex 2.3097 -0.956708 10
    endloop
  endfacet
  facet normal -0.881919 0.471401 0
    outer loop
      vertex 2.07867 -1.38893 0
      vertex 2.3097 -0.956708 10
      vertex 2.3097 -0.956708 0
    endloop
  endfacet
  facet normal -0.881919 0.471401 0
    outer loop
      vertex 2.3097 -0.956708 10
      vertex 2.07867 -1.38893 0
      vertex 2.07867 -1.38893 10
    endloop
  endfacet
  facet normal 0.0980228 -0.995184 0
    outer loop
      vertex 6.51227 2.45196 0
      vertex 7 2.5 10
      vertex 6.51227 2.45196 10
    endloop
  endfacet
  facet normal 0.0980228 -0.995184 0
    outer loop
      vertex 7 2.5 10
      vertex 6.51227 2.45196 0
      vertex 7 2.5 0
    endloop
  endfacet
  facet normal -0.0980228 0.995184 0
    outer loop
      vertex 7.48773 -2.45196 0
      vertex 7 -2.5 10
      vertex 7.48773 -2.45196 10
    endloop
  endfacet
  facet normal -0.0980228 0.995184 0
    outer loop
      vertex 7 -2.5 10
      vertex 7.48773 -2.45196 0
      vertex 7 -2.5 0
    endloop
  endfacet
  facet normal -0.634394 -0.77301 0
    outer loop
      vertex 8.38893 2.07867 0
      vertex 8.716 1.81025 10
      vertex 8.38893 2.07867 10
    endloop
  endfacet
  facet normal -0.634394 -0.77301 -0
    outer loop
      vertex 8.716 1.81025 10
      vertex 8.38893 2.07867 0
      vertex 8.716 1.81025 0
    endloop
  endfacet
  facet normal 0.773016 -0.634386 0
    outer loop
      vertex 4.92133 1.38893 10
      vertex 5.23223 1.76777 0
      vertex 5.23223 1.76777 10
    endloop
  endfacet
  facet normal 0.773016 -0.634386 0
    outer loop
      vertex 5.23223 1.76777 0
      vertex 4.92133 1.38893 10
      vertex 4.92133 1.38893 0
    endloop
  endfacet
  facet normal 0.471402 -0.881918 0
    outer loop
      vertex 5.61107 2.07867 0
      vertex 6.04329 2.3097 10
      vertex 5.61107 2.07867 10
    endloop
  endfacet
  facet normal 0.471402 -0.881918 0
    outer loop
      vertex 6.04329 2.3097 10
      vertex 5.61107 2.07867 0
      vertex 6.04329 2.3097 0
    endloop
  endfacet
  facet normal -0.290278 -0.956942 0
    outer loop
      vertex 7.48773 2.45196 0
      vertex 7.95671 2.3097 10
      vertex 7.48773 2.45196 10
    endloop
  endfacet
  facet normal -0.290278 -0.956942 -0
    outer loop
      vertex 7.95671 2.3097 10
      vertex 7.48773 2.45196 0
      vertex 7.95671 2.3097 0
    endloop
  endfacet
  facet normal -0.0980228 -0.995184 0
    outer loop
      vertex 7 2.5 0
      vertex 7.48773 2.45196 10
      vertex 7 2.5 10
    endloop
  endfacet
  facet normal -0.0980228 -0.995184 -0
    outer loop
      vertex 7.48773 2.45196 10
      vertex 7 2.5 0
      vertex 7.48773 2.45196 0
    endloop
  endfacet
  facet normal -0.471402 -0.881918 0
    outer loop
      vertex 7.95671 2.3097 0
      vertex 8.38893 2.07867 10
      vertex 7.95671 2.3097 10
    endloop
  endfacet
  facet normal -0.471402 -0.881918 -0
    outer loop
      vertex 8.38893 2.07867 10
      vertex 7.95671 2.3097 0
      vertex 8.38893 2.07867 0
    endloop
  endfacet
  facet normal 0.956943 -0.290276 0
    outer loop
      vertex 4.54804 0.487725 10
      vertex 4.6903 0.956708 0
      vertex 4.6903 0.956708 10
    endloop
  endfacet
  facet normal 0.956943 -0.290276 0
    outer loop
      vertex 4.6903 0.956708 0
      vertex 4.54804 0.487725 10
      vertex 4.54804 0.487725 0
    endloop
  endfacet
  facet normal 0.881919 -0.471401 0
    outer loop
      vertex 4.6903 0.956708 10
      vertex 4.92133 1.38893 0
      vertex 4.92133 1.38893 10
    endloop
  endfacet
  facet normal 0.881919 -0.471401 0
    outer loop
      vertex 4.92133 1.38893 0
      vertex 4.6903 0.956708 10
      vertex 4.6903 0.956708 0
    endloop
  endfacet
  facet normal 0.995184 -0.0980238 0
    outer loop
      vertex 4.5 0 10
      vertex 4.54804 0.487725 0
      vertex 4.54804 0.487725 10
    endloop
  endfacet
  facet normal 0.995184 -0.0980238 0
    outer loop
      vertex 4.54804 0.487725 0
      vertex 4.5 0 10
      vertex 4.5 0 0
    endloop
  endfacet
  facet normal 0.634386 -0.773016 0
    outer loop
      vertex 5.23223 1.76777 0
      vertex 5.61107 2.07867 10
      vertex 5.23223 1.76777 10
    endloop
  endfacet
  facet normal 0.634386 -0.773016 0
    outer loop
      vertex 5.61107 2.07867 10
      vertex 5.23223 1.76777 0
      vertex 5.61107 2.07867 0
    endloop
  endfacet
  facet normal 0.290278 -0.956942 0
    outer loop
      vertex 6.04329 2.3097 0
      vertex 6.51227 2.45196 10
      vertex 6.04329 2.3097 10
    endloop
  endfacet
  facet normal 0.290278 -0.956942 0
    outer loop
      vertex 6.51227 2.45196 10
      vertex 6.04329 2.3097 0
      vertex 6.51227 2.45196 0
    endloop
  endfacet
  facet normal -0.290278 0.956942 0
    outer loop
      vertex 7.95671 -2.3097 0
      vertex 7.48773 -2.45196 10
      vertex 7.95671 -2.3097 10
    endloop
  endfacet
  facet normal -0.290278 0.956942 0
    outer loop
      vertex 7.48773 -2.45196 10
      vertex 7.95671 -2.3097 0
      vertex 7.48773 -2.45196 0
    endloop
  endfacet
  facet normal 0.995184 0.0980238 0
    outer loop
      vertex 4.54804 -0.487725 10
      vertex 4.5 0 0
      vertex 4.5 0 10
    endloop
  endfacet
  facet normal 0.995184 0.0980238 0
    outer loop
      vertex 4.5 0 0
      vertex 4.54804 -0.487725 10
      vertex 4.54804 -0.487725 0
    endloop
  endfacet
  facet normal 0.290278 0.956942 -0
    outer loop
      vertex 6.51227 -2.45196 0
      vertex 6.04329 -2.3097 10
      vertex 6.51227 -2.45196 10
    endloop
  endfacet
  facet normal 0.290278 0.956942 0
    outer loop
      vertex 6.04329 -2.3097 10
      vertex 6.51227 -2.45196 0
      vertex 6.04329 -2.3097 0
    endloop
  endfacet
  facet normal 0.773016 0.634386 0
    outer loop
      vertex 5.23223 -1.76777 10
      vertex 4.92133 -1.38893 0
      vertex 4.92133 -1.38893 10
    endloop
  endfacet
  facet normal 0.773016 0.634386 0
    outer loop
      vertex 4.92133 -1.38893 0
      vertex 5.23223 -1.76777 10
      vertex 5.23223 -1.76777 0
    endloop
  endfacet
  facet normal 0.956943 0.290276 0
    outer loop
      vertex 4.6903 -0.956708 10
      vertex 4.54804 -0.487725 0
      vertex 4.54804 -0.487725 10
    endloop
  endfacet
  facet normal 0.956943 0.290276 0
    outer loop
      vertex 4.54804 -0.487725 0
      vertex 4.6903 -0.956708 10
      vertex 4.6903 -0.956708 0
    endloop
  endfacet
  facet normal -0.634394 0.77301 0
    outer loop
      vertex 8.716 -1.81025 0
      vertex 8.38893 -2.07867 10
      vertex 8.716 -1.81025 10
    endloop
  endfacet
  facet normal -0.634394 0.77301 0
    outer loop
      vertex 8.38893 -2.07867 10
      vertex 8.716 -1.81025 0
      vertex 8.38893 -2.07867 0
    endloop
  endfacet
  facet normal -0.471402 0.881918 0
    outer loop
      vertex 8.38893 -2.07867 0
      vertex 7.95671 -2.3097 10
      vertex 8.38893 -2.07867 10
    endloop
  endfacet
  facet normal -0.471402 0.881918 0
    outer loop
      vertex 7.95671 -2.3097 10
      vertex 8.38893 -2.07867 0
      vertex 7.95671 -2.3097 0
    endloop
  endfacet
  facet normal 0.471402 0.881918 -0
    outer loop
      vertex 6.04329 -2.3097 0
      vertex 5.61107 -2.07867 10
      vertex 6.04329 -2.3097 10
    endloop
  endfacet
  facet normal 0.471402 0.881918 0
    outer loop
      vertex 5.61107 -2.07867 10
      vertex 6.04329 -2.3097 0
      vertex 5.61107 -2.07867 0
    endloop
  endfacet
  facet normal 0.0980228 0.995184 -0
    outer loop
      vertex 7 -2.5 0
      vertex 6.51227 -2.45196 10
      vertex 7 -2.5 10
    endloop
  endfacet
  facet normal 0.0980228 0.995184 0
    outer loop
      vertex 6.51227 -2.45196 10
      vertex 7 -2.5 0
      vertex 6.51227 -2.45196 0
    endloop
  endfacet
  facet normal 0.634386 0.773016 -0
    outer loop
      vertex 5.61107 -2.07867 0
      vertex 5.23223 -1.76777 10
      vertex 5.61107 -2.07867 10
    endloop
  endfacet
  facet normal 0.634386 0.773016 0
    outer loop
      vertex 5.23223 -1.76777 10
      vertex 5.61107 -2.07867 0
      vertex 5.23223 -1.76777 0
    endloop
  endfacet
  facet normal 0.881919 0.471401 0
    outer loop
      vertex 4.92133 -1.38893 10
      vertex 4.6903 -0.956708 0
      vertex 4.6903 -0.956708 10
    endloop
  endfacet
  facet normal 0.881919 0.471401 0
    outer loop
      vertex 4.6903 -0.956708 0
      vertex 4.92133 -1.38893 10
      vertex 4.92133 -1.38893 0
    endloop
  endfacet
  facet normal -1 0 0
    outer loop
      vertex -1.476 -3.16056 0
      vertex -1.476 -2.00721 10
      vertex -1.476 -2.00721 0
    endloop
  endfacet
  facet normal -1 -0 0
    outer loop
      vertex -1.476 -2.00721 10
      vertex -1.476 -3.16056 0
      vertex -1.476 -3.16056 10
    endloop
  endfacet
  facet normal -1 0 0
    outer loop
      vertex -1.476 2.00721 0
      vertex -1.476 3.16056 10
      vertex -1.476 3.16056 0
    endloop
  endfacet
  facet normal -1 -0 0
    outer loop
      vertex -1.476 3.16056 10
      vertex -1.476 2.00721 0
      vertex -1.476 2.00721 10
    endloop
  endfacet
  facet normal 1 -0 0
    outer loop
      vertex 8.716 -3.03228 10
      vertex 8.716 -1.81025 0
      vertex 8.716 -1.81025 10
    endloop
  endfacet
  facet normal 1 0 0
    outer loop
      vertex 8.716 -1.81025 0
      vertex 8.716 -3.03228 10
      vertex 8.716 -3.03228 0
    endloop
  endfacet
  facet normal 1 -0 0
    outer loop
      vertex 8.716 1.81025 10
      vertex 8.716 3.03228 0
      vertex 8.716 3.03228 10
    endloop
  endfacet
  facet normal 1 0 0
    outer loop
      vertex 8.716 3.03228 0
      vertex 8.716 1.81025 10
      vertex 8.716 1.81025 0
    endloop
  endfacet
  facet normal 0.0980144 -0.995185 0
    outer loop
      vertex 7 -3.5 0
      vertex 7.68282 -3.43275 10
      vertex 7 -3.5 10
    endloop
  endfacet
  facet normal 0.0980144 -0.995185 0
    outer loop
      vertex 7.68282 -3.43275 10
      vertex 7 -3.5 0
      vertex 7.68282 -3.43275 0
    endloop
  endfacet
  facet normal -0.098015 0.995185 0
    outer loop
      vertex 0 3.5 0
      vertex -0.682816 3.43275 10
      vertex 0 3.5 10
    endloop
  endfacet
  facet normal -0.098015 0.995185 0
    outer loop
      vertex -0.682816 3.43275 10
      vertex 0 3.5 0
      vertex -0.682816 3.43275 0
    endloop
  endfacet
  facet normal -0.471399 -0.88192 0
    outer loop
      vertex -1.476 -3.16056 0
      vertex -1.33939 -3.23358 10
      vertex -1.476 -3.16056 10
    endloop
  endfacet
  facet normal -0.471399 -0.88192 -0
    outer loop
      vertex -1.33939 -3.23358 10
      vertex -1.476 -3.16056 0
      vertex -1.33939 -3.23358 0
    endloop
  endfacet
  facet normal 0.471393 -0.881923 0
    outer loop
      vertex 8.33939 -3.23358 0
      vertex 8.716 -3.03228 10
      vertex 8.33939 -3.23358 10
    endloop
  endfacet
  facet normal 0.471393 -0.881923 0
    outer loop
      vertex 8.716 -3.03228 10
      vertex 8.33939 -3.23358 0
      vertex 8.716 -3.03228 0
    endloop
  endfacet
  facet normal 0.0980144 0.995185 -0
    outer loop
      vertex 7.68282 3.43275 0
      vertex 7 3.5 10
      vertex 7.68282 3.43275 10
    endloop
  endfacet
  facet normal 0.0980144 0.995185 0
    outer loop
      vertex 7 3.5 10
      vertex 7.68282 3.43275 0
      vertex 7 3.5 0
    endloop
  endfacet
  facet normal 0 -1 0
    outer loop
      vertex 0 -3.5 0
      vertex 7 -3.5 10
      vertex 0 -3.5 10
    endloop
  endfacet
  facet normal 0 -1 -0
    outer loop
      vertex 7 -3.5 10
      vertex 0 -3.5 0
      vertex 7 -3.5 0
    endloop
  endfacet
  facet normal 0 0 1
    outer loop
      vertex 8.716 3.03228 10
      vertex 8.38893 2.07867 10
      vertex 8.716 1.81025 10
    endloop
  endfacet
  facet normal 0 0 1
    outer loop
      vertex 7.95671 2.3097 10
      vertex 8.716 3.03228 10
      vertex 8.33939 3.23358 10
    endloop
  endfacet
  facet normal 0 0 1
    outer loop
      vertex 8.716 3.03228 10
      vertex 7.95671 2.3097 10
      vertex 8.38893 2.07867 10
    endloop
  endfacet
  facet normal 0 0 1
    outer loop
      vertex 7.68282 3.43275 10
      vertex 7.95671 2.3097 10
      vertex 8.33939 3.23358 10
    endloop
  endfacet
  facet normal 0 0 1
    outer loop
      vertex 7.68282 3.43275 10
      vertex 7.48773 2.45196 10
      vertex 7.95671 2.3097 10
    endloop
  endfacet
  facet normal 0 0 1
    outer loop
      vertex 7 3.5 10
      vertex 7.48773 2.45196 10
      vertex 7.68282 3.43275 10
    endloop
  endfacet
  facet normal 0 0 1
    outer loop
      vertex 7 3.5 10
      vertex 7 2.5 10
      vertex 7.48773 2.45196 10
    endloop
  endfacet
  facet normal 0 0 1
    outer loop
      vertex 7 3.5 10
      vertex 6.51227 2.45196 10
      vertex 7 2.5 10
    endloop
  endfacet
  facet normal 0 0 1
    outer loop
      vertex 7 3.5 10
      vertex 6.04329 2.3097 10
      vertex 6.51227 2.45196 10
    endloop
  endfacet
  facet normal 0 0 1
    outer loop
      vertex 7 3.5 10
      vertex 5.61107 2.07867 10
      vertex 6.04329 2.3097 10
    endloop
  endfacet
  facet normal 0 0 1
    outer loop
      vertex 1.38893 2.07867 10
      vertex 5.61107 2.07867 10
      vertex 7 3.5 10
    endloop
  endfacet
  facet normal 0 0 1
    outer loop
      vertex 4.54804 0.487725 10
      vertex 2.5 0 10
      vertex 4.5 0 10
    endloop
  endfacet
  facet normal 0 0 1
    outer loop
      vertex 2.45196 0.487725 10
      vertex 4.54804 0.487725 10
      vertex 4.6903 0.956708 10
    endloop
  endfacet
  facet normal 0 0 1
    outer loop
      vertex 2.3097 0.956708 10
      vertex 4.6903 0.956708 10
      vertex 4.92133 1.38893 10
    endloop
  endfacet
  facet normal 0 0 1
    outer loop
      vertex 2.07867 1.38893 10
      vertex 4.92133 1.38893 10
      vertex 5.23223 1.76777 10
    endloop
  endfacet
  facet normal 0 0 1
    outer loop
      vertex 5.61107 2.07867 10
      vertex 1.38893 2.07867 10
      vertex 5.23223 1.76777 10
    endloop
  endfacet
  facet normal 0 0 1
    outer loop
      vertex 4.54804 0.487725 10
      vertex 2.45196 0.487725 10
      vertex 2.5 0 10
    endloop
  endfacet
  facet normal 0 0 1
    outer loop
      vertex 4.6903 0.956708 10
      vertex 2.3097 0.956708 10
      vertex 2.45196 0.487725 10
    endloop
  endfacet
  facet normal 0 0 1
    outer loop
      vertex 4.92133 1.38893 10
      vertex 2.07867 1.38893 10
      vertex 2.3097 0.956708 10
    endloop
  endfacet
  facet normal 0 0 1
    outer loop
      vertex 5.23223 1.76777 10
      vertex 1.76777 1.76777 10
      vertex 2.07867 1.38893 10
    endloop
  endfacet
  facet normal 0 0 1
    outer loop
      vertex 5.23223 1.76777 10
      vertex 1.38893 2.07867 10
      vertex 1.76777 1.76777 10
    endloop
  endfacet
  facet normal -0 0 1
    outer loop
      vertex 0 3.5 10
      vertex 1.38893 2.07867 10
      vertex 7 3.5 10
    endloop
  endfacet
  facet normal 0 0 1
    outer loop
      vertex 1.38893 2.07867 10
      vertex 0 3.5 10
      vertex 0.956708 2.3097 10
    endloop
  endfacet
  facet normal 0 0 1
    outer loop
      vertex 0.956708 2.3097 10
      vertex 0 3.5 10
      vertex 0.487725 2.45196 10
    endloop
  endfacet
  facet normal 0 0 1
    outer loop
      vertex 0 3.5 10
      vertex 0 2.5 10
      vertex 0.487725 2.45196 10
    endloop
  endfacet
  facet normal 0 0 1
    outer loop
      vertex 0 3.5 10
      vertex -0.487725 2.45196 10
      vertex 0 2.5 10
    endloop
  endfacet
  facet normal -0 0 1
    outer loop
      vertex -0.682816 3.43275 10
      vertex -0.487725 2.45196 10
      vertex 0 3.5 10
    endloop
  endfacet
  facet normal 0 0 1
    outer loop
      vertex -0.682816 3.43275 10
      vertex -0.956708 2.3097 10
      vertex -0.487725 2.45196 10
    endloop
  endfacet
  facet normal -0 0 1
    outer loop
      vertex -1.33939 3.23358 10
      vertex -0.956708 2.3097 10
      vertex -0.682816 3.43275 10
    endloop
  endfacet
  facet normal -0 0 1
    outer loop
      vertex -1.476 3.16056 10
      vertex -0.956708 2.3097 10
      vertex -1.33939 3.23358 10
    endloop
  endfacet
  facet normal 0 0 1
    outer loop
      vertex -0.956708 2.3097 10
      vertex -1.476 3.16056 10
      vertex -1.38893 2.07867 10
    endloop
  endfacet
  facet normal 0 0 1
    outer loop
      vertex -1.38893 2.07867 10
      vertex -1.476 3.16056 10
      vertex -1.476 2.00721 10
    endloop
  endfacet
  facet normal -0 0 1
    outer loop
      vertex 8.38893 -2.07867 10
      vertex 8.716 -3.03228 10
      vertex 8.716 -1.81025 10
    endloop
  endfacet
  facet normal -0 0 1
    outer loop
      vertex 7.95671 -2.3097 10
      vertex 8.716 -3.03228 10
      vertex 8.38893 -2.07867 10
    endloop
  endfacet
  facet normal 0 0 1
    outer loop
      vertex 8.716 -3.03228 10
      vertex 7.95671 -2.3097 10
      vertex 8.33939 -3.23358 10
    endloop
  endfacet
  facet normal 0 0 1
    outer loop
      vertex 7.95671 -2.3097 10
      vertex 7.68282 -3.43275 10
      vertex 8.33939 -3.23358 10
    endloop
  endfacet
  facet normal -0 0 1
    outer loop
      vertex 7.48773 -2.45196 10
      vertex 7.68282 -3.43275 10
      vertex 7.95671 -2.3097 10
    endloop
  endfacet
  facet normal -0 0 1
    outer loop
      vertex 7 -2.5 10
      vertex 7.68282 -3.43275 10
      vertex 7.48773 -2.45196 10
    endloop
  endfacet
  facet normal 0 0 1
    outer loop
      vertex 7 -2.5 10
      vertex 7 -3.5 10
      vertex 7.68282 -3.43275 10
    endloop
  endfacet
  facet normal 0 0 1
    outer loop
      vertex 6.51227 -2.45196 10
      vertex 7 -3.5 10
      vertex 7 -2.5 10
    endloop
  endfacet
  facet normal 0 0 1
    outer loop
      vertex 6.04329 -2.3097 10
      vertex 7 -3.5 10
      vertex 6.51227 -2.45196 10
    endloop
  endfacet
  facet normal 0 0 1
    outer loop
      vertex 5.61107 -2.07867 10
      vertex 7 -3.5 10
      vertex 6.04329 -2.3097 10
    endloop
  endfacet
  facet normal 0 0 1
    outer loop
      vertex 1.38893 -2.07867 10
      vertex 5.61107 -2.07867 10
      vertex 5.23223 -1.76777 10
    endloop
  endfacet
  facet normal -0 0 1
    outer loop
      vertex 2.5 0 10
      vertex 4.54804 -0.487725 10
      vertex 4.5 0 10
    endloop
  endfacet
  facet normal 0 0 1
    outer loop
      vertex 2.45196 -0.487725 10
      vertex 4.54804 -0.487725 10
      vertex 2.5 0 10
    endloop
  endfacet
  facet normal 0 0 1
    outer loop
      vertex 4.54804 -0.487725 10
      vertex 2.45196 -0.487725 10
      vertex 4.6903 -0.956708 10
    endloop
  endfacet
  facet normal 0 0 1
    outer loop
      vertex 2.3097 -0.956708 10
      vertex 4.6903 -0.956708 10
      vertex 2.45196 -0.487725 10
    endloop
  endfacet
  facet normal 0 0 1
    outer loop
      vertex 4.6903 -0.956708 10
      vertex 2.3097 -0.956708 10
      vertex 4.92133 -1.38893 10
    endloop
  endfacet
  facet normal 0 0 1
    outer loop
      vertex 2.07867 -1.38893 10
      vertex 4.92133 -1.38893 10
      vertex 2.3097 -0.956708 10
    endloop
  endfacet
  facet normal 0 0 1
    outer loop
      vertex 4.92133 -1.38893 10
      vertex 2.07867 -1.38893 10
      vertex 5.23223 -1.76777 10
    endloop
  endfacet
  facet normal 0 0 1
    outer loop
      vertex 1.76777 -1.76777 10
      vertex 5.23223 -1.76777 10
      vertex 2.07867 -1.38893 10
    endloop
  endfacet
  facet normal 0 0 1
    outer loop
      vertex 1.38893 -2.07867 10
      vertex 5.23223 -1.76777 10
      vertex 1.76777 -1.76777 10
    endloop
  endfacet
  facet normal 0 0 1
    outer loop
      vertex 5.61107 -2.07867 10
      vertex 1.38893 -2.07867 10
      vertex 7 -3.5 10
    endloop
  endfacet
  facet normal 0 0 1
    outer loop
      vertex 0 -3.5 10
      vertex 1.38893 -2.07867 10
      vertex 0.956708 -2.3097 10
    endloop
  endfacet
  facet normal 0 0 1
    outer loop
      vertex 0 -3.5 10
      vertex 0.956708 -2.3097 10
      vertex 0.487725 -2.45196 10
    endloop
  endfacet
  facet normal 0 0 1
    outer loop
      vertex 0 -3.5 10
      vertex 0.487725 -2.45196 10
      vertex 0 -2.5 10
    endloop
  endfacet
  facet normal 0 0 1
    outer loop
      vertex 1.38893 -2.07867 10
      vertex 0 -3.5 10
      vertex 7 -3.5 10
    endloop
  endfacet
  facet normal 0 0 1
    outer loop
      vertex -0.487725 -2.45196 10
      vertex 0 -3.5 10
      vertex 0 -2.5 10
    endloop
  endfacet
  facet normal 0 0 1
    outer loop
      vertex -0.487725 -2.45196 10
      vertex -0.682816 -3.43275 10
      vertex 0 -3.5 10
    endloop
  endfacet
  facet normal 0 0 1
    outer loop
      vertex -0.956708 -2.3097 10
      vertex -0.682816 -3.43275 10
      vertex -0.487725 -2.45196 10
    endloop
  endfacet
  facet normal 0 0 1
    outer loop
      vertex -0.956708 -2.3097 10
      vertex -1.33939 -3.23358 10
      vertex -0.682816 -3.43275 10
    endloop
  endfacet
  facet normal 0 0 1
    outer loop
      vertex -1.476 -3.16056 10
      vertex -0.956708 -2.3097 10
      vertex -1.38893 -2.07867 10
    endloop
  endfacet
  facet normal 0 0 1
    outer loop
      vertex -1.476 -3.16056 10
      vertex -1.38893 -2.07867 10
      vertex -1.476 -2.00721 10
    endloop
  endfacet
  facet normal 0 0 1
    outer loop
      vertex -0.956708 -2.3097 10
      vertex -1.476 -3.16056 10
      vertex -1.33939 -3.23358 10
    endloop
  endfacet
  facet normal 0 0 -1
    outer loop
      vertex 8.716 -3.03228 0
      vertex 8.38893 -2.07867 0
      vertex 8.716 -1.81025 0
    endloop
  endfacet
  facet normal 0 0 -1
    outer loop
      vertex 7.95671 -2.3097 0
      vertex 8.716 -3.03228 0
      vertex 8.33939 -3.23358 0
    endloop
  endfacet
  facet normal 0 0 -1
    outer loop
      vertex 8.716 -3.03228 0
      vertex 7.95671 -2.3097 0
      vertex 8.38893 -2.07867 0
    endloop
  endfacet
  facet normal 0 0 -1
    outer loop
      vertex 7.68282 -3.43275 0
      vertex 7.95671 -2.3097 0
      vertex 8.33939 -3.23358 0
    endloop
  endfacet
  facet normal 0 0 -1
    outer loop
      vertex 7.68282 -3.43275 0
      vertex 7.48773 -2.45196 0
      vertex 7.95671 -2.3097 0
    endloop
  endfacet
  facet normal 0 0 -1
    outer loop
      vertex 7 -3.5 0
      vertex 7.48773 -2.45196 0
      vertex 7.68282 -3.43275 0
    endloop
  endfacet
  facet normal 0 0 -1
    outer loop
      vertex 7 -3.5 0
      vertex 7 -2.5 0
      vertex 7.48773 -2.45196 0
    endloop
  endfacet
  facet normal 0 0 -1
    outer loop
      vertex 7 -3.5 0
      vertex 6.51227 -2.45196 0
      vertex 7 -2.5 0
    endloop
  endfacet
  facet normal 0 0 -1
    outer loop
      vertex 7 -3.5 0
      vertex 6.04329 -2.3097 0
      vertex 6.51227 -2.45196 0
    endloop
  endfacet
  facet normal 0 0 -1
    outer loop
      vertex 7 -3.5 0
      vertex 5.61107 -2.07867 0
      vertex 6.04329 -2.3097 0
    endloop
  endfacet
  facet normal 0 0 -1
    outer loop
      vertex 1.38893 -2.07867 0
      vertex 5.61107 -2.07867 0
      vertex 7 -3.5 0
    endloop
  endfacet
  facet normal 0 0 -1
    outer loop
      vertex 4.54804 -0.487725 0
      vertex 2.5 0 0
      vertex 4.5 0 0
    endloop
  endfacet
  facet normal 0 0 -1
    outer loop
      vertex 2.45196 -0.487725 0
      vertex 4.54804 -0.487725 0
      vertex 4.6903 -0.956708 0
    endloop
  endfacet
  facet normal 0 0 -1
    outer loop
      vertex 2.3097 -0.956708 0
      vertex 4.6903 -0.956708 0
      vertex 4.92133 -1.38893 0
    endloop
  endfacet
  facet normal 0 0 -1
    outer loop
      vertex 2.07867 -1.38893 0
      vertex 4.92133 -1.38893 0
      vertex 5.23223 -1.76777 0
    endloop
  endfacet
  facet normal 0 0 -1
    outer loop
      vertex 5.61107 -2.07867 0
      vertex 1.38893 -2.07867 0
      vertex 5.23223 -1.76777 0
    endloop
  endfacet
  facet normal 0 0 -1
    outer loop
      vertex 4.54804 -0.487725 0
      vertex 2.45196 -0.487725 0
      vertex 2.5 0 0
    endloop
  endfacet
  facet normal 0 0 -1
    outer loop
      vertex 4.6903 -0.956708 0
      vertex 2.3097 -0.956708 0
      vertex 2.45196 -0.487725 0
    endloop
  endfacet
  facet normal 0 0 -1
    outer loop
      vertex 4.92133 -1.38893 0
      vertex 2.07867 -1.38893 0
      vertex 2.3097 -0.956708 0
    endloop
  endfacet
  facet normal 0 0 -1
    outer loop
      vertex 5.23223 -1.76777 0
      vertex 1.76777 -1.76777 0
      vertex 2.07867 -1.38893 0
    endloop
  endfacet
  facet normal -0 0 -1
    outer loop
      vertex 5.23223 -1.76777 0
      vertex 1.38893 -2.07867 0
      vertex 1.76777 -1.76777 0
    endloop
  endfacet
  facet normal 0 0 -1
    outer loop
      vertex 0 -3.5 0
      vertex 1.38893 -2.07867 0
      vertex 7 -3.5 0
    endloop
  endfacet
  facet normal 0 0 -1
    outer loop
      vertex 1.38893 -2.07867 0
      vertex 0 -3.5 0
      vertex 0.956708 -2.3097 0
    endloop
  endfacet
  facet normal 0 0 -1
    outer loop
      vertex 0.956708 -2.3097 0
      vertex 0 -3.5 0
      vertex 0.487725 -2.45196 0
    endloop
  endfacet
  facet normal 0 0 -1
    outer loop
      vertex 0 -3.5 0
      vertex 0 -2.5 0
      vertex 0.487725 -2.45196 0
    endloop
  endfacet
  facet normal 0 0 -1
    outer loop
      vertex 0 -3.5 0
      vertex -0.487725 -2.45196 0
      vertex 0 -2.5 0
    endloop
  endfacet
  facet normal 0 0 -1
    outer loop
      vertex -0.682816 -3.43275 0
      vertex -0.487725 -2.45196 0
      vertex 0 -3.5 0
    endloop
  endfacet
  facet normal 0 0 -1
    outer loop
      vertex -0.682816 -3.43275 0
      vertex -0.956708 -2.3097 0
      vertex -0.487725 -2.45196 0
    endloop
  endfacet
  facet normal 0 0 -1
    outer loop
      vertex -1.33939 -3.23358 0
      vertex -0.956708 -2.3097 0
      vertex -0.682816 -3.43275 0
    endloop
  endfacet
  facet normal 0 0 -1
    outer loop
      vertex -1.476 -3.16056 0
      vertex -0.956708 -2.3097 0
      vertex -1.33939 -3.23358 0
    endloop
  endfacet
  facet normal -0 0 -1
    outer loop
      vertex -0.956708 -2.3097 0
      vertex -1.476 -3.16056 0
      vertex -1.38893 -2.07867 0
    endloop
  endfacet
  facet normal -0 0 -1
    outer loop
      vertex -1.38893 -2.07867 0
      vertex -1.476 -3.16056 0
      vertex -1.476 -2.00721 0
    endloop
  endfacet
  facet normal 0 0 -1
    outer loop
      vertex 8.38893 2.07867 0
      vertex 8.716 3.03228 0
      vertex 8.716 1.81025 0
    endloop
  endfacet
  facet normal 0 0 -1
    outer loop
      vertex 7.95671 2.3097 0
      vertex 8.716 3.03228 0
      vertex 8.38893 2.07867 0
    endloop
  endfacet
  facet normal -0 0 -1
    outer loop
      vertex 8.716 3.03228 0
      vertex 7.95671 2.3097 0
      vertex 8.33939 3.23358 0
    endloop
  endfacet
  facet normal 0 0 -1
    outer loop
      vertex 7.95671 2.3097 0
      vertex 7.68282 3.43275 0
      vertex 8.33939 3.23358 0
    endloop
  endfacet
  facet normal 0 0 -1
    outer loop
      vertex 7.48773 2.45196 0
      vertex 7.68282 3.43275 0
      vertex 7.95671 2.3097 0
    endloop
  endfacet
  facet normal 0 0 -1
    outer loop
      vertex 7 2.5 0
      vertex 7.68282 3.43275 0
      vertex 7.48773 2.45196 0
    endloop
  endfacet
  facet normal 0 0 -1
    outer loop
      vertex 7 2.5 0
      vertex 7 3.5 0
      vertex 7.68282 3.43275 0
    endloop
  endfacet
  facet normal 0 0 -1
    outer loop
      vertex 6.51227 2.45196 0
      vertex 7 3.5 0
      vertex 7 2.5 0
    endloop
  endfacet
  facet normal 0 0 -1
    outer loop
      vertex 6.04329 2.3097 0
      vertex 7 3.5 0
      vertex 6.51227 2.45196 0
    endloop
  endfacet
  facet normal 0 0 -1
    outer loop
      vertex 5.61107 2.07867 0
      vertex 7 3.5 0
      vertex 6.04329 2.3097 0
    endloop
  endfacet
  facet normal 0 0 -1
    outer loop
      vertex 1.38893 2.07867 0
      vertex 5.61107 2.07867 0
      vertex 5.23223 1.76777 0
    endloop
  endfacet
  facet normal 0 0 -1
    outer loop
      vertex 2.5 0 0
      vertex 4.54804 0.487725 0
      vertex 4.5 0 0
    endloop
  endfacet
  facet normal 0 0 -1
    outer loop
      vertex 2.45196 0.487725 0
      vertex 4.54804 0.487725 0
      vertex 2.5 0 0
    endloop
  endfacet
  facet normal 0 0 -1
    outer loop
      vertex 4.54804 0.487725 0
      vertex 2.45196 0.487725 0
      vertex 4.6903 0.956708 0
    endloop
  endfacet
  facet normal 0 0 -1
    outer loop
      vertex 2.3097 0.956708 0
      vertex 4.6903 0.956708 0
      vertex 2.45196 0.487725 0
    endloop
  endfacet
  facet normal 0 0 -1
    outer loop
      vertex 4.6903 0.956708 0
      vertex 2.3097 0.956708 0
      vertex 4.92133 1.38893 0
    endloop
  endfacet
  facet normal 0 0 -1
    outer loop
      vertex 2.07867 1.38893 0
      vertex 4.92133 1.38893 0
      vertex 2.3097 0.956708 0
    endloop
  endfacet
  facet normal 0 0 -1
    outer loop
      vertex 4.92133 1.38893 0
      vertex 2.07867 1.38893 0
      vertex 5.23223 1.76777 0
    endloop
  endfacet
  facet normal 0 0 -1
    outer loop
      vertex 1.76777 1.76777 0
      vertex 5.23223 1.76777 0
      vertex 2.07867 1.38893 0
    endloop
  endfacet
  facet normal 0 0 -1
    outer loop
      vertex 1.38893 2.07867 0
      vertex 5.23223 1.76777 0
      vertex 1.76777 1.76777 0
    endloop
  endfacet
  facet normal 0 0 -1
    outer loop
      vertex 5.61107 2.07867 0
      vertex 1.38893 2.07867 0
      vertex 7 3.5 0
    endloop
  endfacet
  facet normal 0 0 -1
    outer loop
      vertex 0 3.5 0
      vertex 1.38893 2.07867 0
      vertex 0.956708 2.3097 0
    endloop
  endfacet
  facet normal 0 0 -1
    outer loop
      vertex 0 3.5 0
      vertex 0.956708 2.3097 0
      vertex 0.487725 2.45196 0
    endloop
  endfacet
  facet normal 0 0 -1
    outer loop
      vertex 0 3.5 0
      vertex 0.487725 2.45196 0
      vertex 0 2.5 0
    endloop
  endfacet
  facet normal 0 0 -1
    outer loop
      vertex 1.38893 2.07867 0
      vertex 0 3.5 0
      vertex 7 3.5 0
    endloop
  endfacet
  facet normal 0 0 -1
    outer loop
      vertex -0.487725 2.45196 0
      vertex 0 3.5 0
      vertex 0 2.5 0
    endloop
  endfacet
  facet normal 0 0 -1
    outer loop
      vertex -0.487725 2.45196 0
      vertex -0.682816 3.43275 0
      vertex 0 3.5 0
    endloop
  endfacet
  facet normal 0 0 -1
    outer loop
      vertex -0.956708 2.3097 0
      vertex -0.682816 3.43275 0
      vertex -0.487725 2.45196 0
    endloop
  endfacet
  facet normal 0 0 -1
    outer loop
      vertex -0.956708 2.3097 0
      vertex -1.33939 3.23358 0
      vertex -0.682816 3.43275 0
    endloop
  endfacet
  facet normal 0 0 -1
    outer loop
      vertex -1.476 3.16056 0
      vertex -0.956708 2.3097 0
      vertex -1.38893 2.07867 0
    endloop
  endfacet
  facet normal 0 0 -1
    outer loop
      vertex -1.476 3.16056 0
      vertex -1.38893 2.07867 0
      vertex -1.476 2.00721 0
    endloop
  endfacet
  facet normal 0 0 -1
    outer loop
      vertex -0.956708 2.3097 0
      vertex -1.476 3.16056 0
      vertex -1.33939 3.23358 0
    endloop
  endfacet
  facet normal 0.290287 -0.95694 0
    outer loop
      vertex 7.68282 -3.43275 0
      vertex 8.33939 -3.23358 10
      vertex 7.68282 -3.43275 10
    endloop
  endfacet
  facet normal 0.290287 -0.95694 0
    outer loop
      vertex 8.33939 -3.23358 10
      vertex 7.68282 -3.43275 0
      vertex 8.33939 -3.23358 0
    endloop
  endfacet
  facet normal 0 1 -0
    outer loop
      vertex 7 3.5 0
      vertex 0 3.5 10
      vertex 7 3.5 10
    endloop
  endfacet
  facet normal 0 1 0
    outer loop
      vertex 0 3.5 10
      vertex 7 3.5 0
      vertex 0 3.5 0
    endloop
  endfacet
  facet normal 0.471393 0.881923 -0
    outer loop
      vertex 8.716 3.03228 0
      vertex 8.33939 3.23358 10
      vertex 8.716 3.03228 10
    endloop
  endfacet
  facet normal 0.471393 0.881923 0
    outer loop
      vertex 8.33939 3.23358 10
      vertex 8.716 3.03228 0
      vertex 8.33939 3.23358 0
    endloop
  endfacet
  facet normal 0.290287 0.95694 -0
    outer loop
      vertex 8.33939 3.23358 0
      vertex 7.68282 3.43275 10
      vertex 8.33939 3.23358 10
    endloop
  endfacet
  facet normal 0.290287 0.95694 0
    outer loop
      vertex 7.68282 3.43275 10
      vertex 8.33939 3.23358 0
      vertex 7.68282 3.43275 0
    endloop
  endfacet
  facet normal -0.471399 0.88192 0
    outer loop
      vertex -1.33939 3.23358 0
      vertex -1.476 3.16056 10
      vertex -1.33939 3.23358 10
    endloop
  endfacet
  facet normal -0.471399 0.88192 0
    outer loop
      vertex -1.476 3.16056 10
      vertex -1.33939 3.23358 0
      vertex -1.476 3.16056 0
    endloop
  endfacet
  facet normal -0.290285 0.95694 0
    outer loop
      vertex -0.682816 3.43275 0
      vertex -1.33939 3.23358 10
      vertex -0.682816 3.43275 10
    endloop
  endfacet
  facet normal -0.290285 0.95694 0
    outer loop
      vertex -1.33939 3.23358 10
      vertex -0.682816 3.43275 0
      vertex -1.33939 3.23358 0
    endloop
  endfacet
  facet normal -0.290285 -0.95694 0
    outer loop
      vertex -1.33939 -3.23358 0
      vertex -0.682816 -3.43275 10
      vertex -1.33939 -3.23358 10
    endloop
  endfacet
  facet normal -0.290285 -0.95694 -0
    outer loop
      vertex -0.682816 -3.43275 10
      vertex -1.33939 -3.23358 0
      vertex -0.682816 -3.43275 0
    endloop
  endfacet
  facet normal -0.098015 -0.995185 0
    outer loop
      vertex -0.682816 -3.43275 0
      vertex 0 -3.5 10
      vertex -0.682816 -3.43275 10
    endloop
  endfacet
  facet normal -0.098015 -0.995185 -0
    outer loop
      vertex 0 -3.5 10
      vertex -0.682816 -3.43275 0
      vertex 0 -3.5 0
    endloop
  endfacet
endsolid OpenSCAD_Model
