solid OpenSCAD_Model
  facet normal 0 -1 0
    outer loop
      vertex 0 10 95.5
      vertex 8.97691 10 91.2099
      vertex 11.4538 10 95.5
    endloop
  endfacet
  facet normal 0 -1 0
    outer loop
      vertex 0 10 95.5
      vertex 6.00521 10 82.0639
      vertex 8.97691 10 91.2099
    endloop
  endfacet
  facet normal 0 -1 0
    outer loop
      vertex 0 10 95.5
      vertex 5 10 72.5
      vertex 6.00521 10 82.0639
    endloop
  endfacet
  facet normal 0 -1 0
    outer loop
      vertex 0 10 38.5
      vertex 5 10 72.5
      vertex 0 10 95.5
    endloop
  endfacet
  facet normal 0 -1 -0
    outer loop
      vertex 5 10 72.5
      vertex 0 10 38.5
      vertex 6.00521 10 62.9361
    endloop
  endfacet
  facet normal 0 -1 0
    outer loop
      vertex 0 10 38.5
      vertex 8.97691 10 53.7901
      vertex 6.00521 10 62.9361
    endloop
  endfacet
  facet normal 0 -1 0
    outer loop
      vertex 6.55844 10 38.5
      vertex 8.97691 10 53.7901
      vertex 0 10 38.5
    endloop
  endfacet
  facet normal 0 -1 -0
    outer loop
      vertex 8.97691 10 53.7901
      vertex 6.55844 10 38.5
      vertex 13.7852 10 45.4619
    endloop
  endfacet
  facet normal 0 -1 0
    outer loop
      vertex 6.55844 10 38.5
      vertex 20.22 10 38.3153
      vertex 13.7852 10 45.4619
    endloop
  endfacet
  facet normal 0 -1 0
    outer loop
      vertex 8.11688 10 33.5
      vertex 20.22 10 38.3153
      vertex 6.55844 10 38.5
    endloop
  endfacet
  facet normal 0 -1 -0
    outer loop
      vertex 20.22 10 38.3153
      vertex 8.11688 10 33.5
      vertex 26.8477 10 33.5
    endloop
  endfacet
  facet normal 0 -1 0
    outer loop
      vertex 81.78 10 38.3153
      vertex 95.4416 10 38.5
      vertex 88.2148 10 45.4619
    endloop
  endfacet
  facet normal 0 -1 0
    outer loop
      vertex 93.8831 10 33.5
      vertex 81.78 10 38.3153
      vertex 75.1523 10 33.5
    endloop
  endfacet
  facet normal 0 -1 0
    outer loop
      vertex 81.78 10 38.3153
      vertex 93.8831 10 33.5
      vertex 95.4416 10 38.5
    endloop
  endfacet
  facet normal 0 -1 0
    outer loop
      vertex 93.0231 10 91.2099
      vertex 102 10 95.5
      vertex 90.5462 10 95.5
    endloop
  endfacet
  facet normal 0 -1 0
    outer loop
      vertex 95.9948 10 82.0639
      vertex 102 10 95.5
      vertex 93.0231 10 91.2099
    endloop
  endfacet
  facet normal 0 -1 0
    outer loop
      vertex 97 10 72.5
      vertex 102 10 95.5
      vertex 95.9948 10 82.0639
    endloop
  endfacet
  facet normal 0 -1 0
    outer loop
      vertex 102 10 38.5
      vertex 97 10 72.5
      vertex 95.9948 10 62.9361
    endloop
  endfacet
  facet normal 0 -1 0
    outer loop
      vertex 95.4416 10 38.5
      vertex 93.0231 10 53.7901
      vertex 88.2148 10 45.4619
    endloop
  endfacet
  facet normal 0 -1 0
    outer loop
      vertex 102 10 38.5
      vertex 93.0231 10 53.7901
      vertex 95.4416 10 38.5
    endloop
  endfacet
  facet normal 0 -1 0
    outer loop
      vertex 93.0231 10 53.7901
      vertex 102 10 38.5
      vertex 95.9948 10 62.9361
    endloop
  endfacet
  facet normal 0 -1 0
    outer loop
      vertex 97 10 72.5
      vertex 102 10 38.5
      vertex 102 10 95.5
    endloop
  endfacet
  facet normal -0 0 1
    outer loop
      vertex 17 5 5
      vertex 85 0 5
      vertex 85 5 5
    endloop
  endfacet
  facet normal 0 0 1
    outer loop
      vertex 85 0 5
      vertex 17 5 5
      vertex 17 0 5
    endloop
  endfacet
  facet normal -0 0 1
    outer loop
      vertex 0 10 38.5
      vertex 6.55844 0 38.5
      vertex 6.55844 10 38.5
    endloop
  endfacet
  facet normal 0 0 1
    outer loop
      vertex 6.55844 0 38.5
      vertex 0 10 38.5
      vertex 0 0 38.5
    endloop
  endfacet
  facet normal -0 0 1
    outer loop
      vertex 95.4416 10 38.5
      vertex 102 0 38.5
      vertex 102 10 38.5
    endloop
  endfacet
  facet normal 0 0 1
    outer loop
      vertex 102 0 38.5
      vertex 95.4416 10 38.5
      vertex 95.4416 0 38.5
    endloop
  endfacet
  facet normal 0.9547 0 0.297569
    outer loop
      vertex 6.55844 10 38.5
      vertex 8.11688 5 33.5
      vertex 8.11688 10 33.5
    endloop
  endfacet
  facet normal 0.9547 -0 0.297569
    outer loop
      vertex 6.55844 0 38.5
      vertex 8.11688 5 33.5
      vertex 6.55844 10 38.5
    endloop
  endfacet
  facet normal 0.9547 3.41982e-07 0.297569
    outer loop
      vertex 17 0 5
      vertex 8.11688 5 33.5
      vertex 6.55844 0 38.5
    endloop
  endfacet
  facet normal 0.9547 0 0.297569
    outer loop
      vertex 8.11688 5 33.5
      vertex 17 0 5
      vertex 17 5 5
    endloop
  endfacet
  facet normal -0.9547 0 0.297568
    outer loop
      vertex 85 5 5
      vertex 85 0 5
      vertex 93.8831 5 33.5
    endloop
  endfacet
  facet normal -0.954697 0 0.297579
    outer loop
      vertex 93.8831 5 33.5
      vertex 95.4416 10 38.5
      vertex 93.8831 10 33.5
    endloop
  endfacet
  facet normal -0.954697 0 0.297579
    outer loop
      vertex 93.8831 5 33.5
      vertex 95.4416 0 38.5
      vertex 95.4416 10 38.5
    endloop
  endfacet
  facet normal -0.9547 -9.97448e-06 0.29757
    outer loop
      vertex 95.4416 0 38.5
      vertex 93.8831 5 33.5
      vertex 85 0 5
    endloop
  endfacet
  facet normal -1 0 0
    outer loop
      vertex 0 5 0
      vertex 0 0 0
      vertex 0 5 33.5
    endloop
  endfacet
  facet normal -1 0 0
    outer loop
      vertex 0 25 33.5
      vertex 0 10 38.5
      vertex 0 25 95.5
    endloop
  endfacet
  facet normal -1 0 0
    outer loop
      vertex 0 5 33.5
      vertex 0 10 38.5
      vertex 0 25 33.5
    endloop
  endfacet
  facet normal -1 0 0
    outer loop
      vertex 0 5 33.5
      vertex 0 0 38.5
      vertex 0 10 38.5
    endloop
  endfacet
  facet normal -1 0 0
    outer loop
      vertex 0 0 38.5
      vertex 0 5 33.5
      vertex 0 0 0
    endloop
  endfacet
  facet normal -1 -0 0
    outer loop
      vertex 0 25 95.5
      vertex 0 10 38.5
      vertex 0 10 95.5
    endloop
  endfacet
  facet normal 1 0 0
    outer loop
      vertex 102 10 38.5
      vertex 102 25 95.5
      vertex 102 10 95.5
    endloop
  endfacet
  facet normal 1 0 0
    outer loop
      vertex 102 25 95.5
      vertex 102 10 38.5
      vertex 102 25 33.5
    endloop
  endfacet
  facet normal 1 0 0
    outer loop
      vertex 102 10 38.5
      vertex 102 5 33.5
      vertex 102 25 33.5
    endloop
  endfacet
  facet normal 1 -0 0
    outer loop
      vertex 102 0 38.5
      vertex 102 5 33.5
      vertex 102 10 38.5
    endloop
  endfacet
  facet normal 1 0 0
    outer loop
      vertex 102 0 0
      vertex 102 5 33.5
      vertex 102 0 38.5
    endloop
  endfacet
  facet normal 1 0 0
    outer loop
      vertex 102 5 33.5
      vertex 102 0 0
      vertex 102 5 0
    endloop
  endfacet
  facet normal 0 0 -1
    outer loop
      vertex 0 0 0
      vertex 102 5 0
      vertex 102 0 0
    endloop
  endfacet
  facet normal -0 0 -1
    outer loop
      vertex 102 5 0
      vertex 0 0 0
      vertex 0 5 0
    endloop
  endfacet
  facet normal 0 -1 0
    outer loop
      vertex 0 0 0
      vertex 6.55844 0 38.5
      vertex 0 0 38.5
    endloop
  endfacet
  facet normal 0 -1 -0
    outer loop
      vertex 17 0 5
      vertex 0 0 0
      vertex 85 0 5
    endloop
  endfacet
  facet normal 0 -1 -0
    outer loop
      vertex 6.55844 0 38.5
      vertex 0 0 0
      vertex 17 0 5
    endloop
  endfacet
  facet normal 0 -1 0
    outer loop
      vertex 102 0 0
      vertex 95.4416 0 38.5
      vertex 85 0 5
    endloop
  endfacet
  facet normal 0 -1 0
    outer loop
      vertex 95.4416 0 38.5
      vertex 102 0 0
      vertex 102 0 38.5
    endloop
  endfacet
  facet normal 0 -1 0
    outer loop
      vertex 102 0 0
      vertex 85 0 5
      vertex 0 0 0
    endloop
  endfacet
  facet normal 0 1 -0
    outer loop
      vertex 102 5 0
      vertex 93.8831 5 33.5
      vertex 102 5 33.5
    endloop
  endfacet
  facet normal 0 1 0
    outer loop
      vertex 85 5 5
      vertex 102 5 0
      vertex 17 5 5
    endloop
  endfacet
  facet normal 0 1 0
    outer loop
      vertex 93.8831 5 33.5
      vertex 102 5 0
      vertex 85 5 5
    endloop
  endfacet
  facet normal 0 1 0
    outer loop
      vertex 0 5 0
      vertex 8.11688 5 33.5
      vertex 17 5 5
    endloop
  endfacet
  facet normal 0 1 0
    outer loop
      vertex 8.11688 5 33.5
      vertex 0 5 0
      vertex 0 5 33.5
    endloop
  endfacet
  facet normal 0 1 0
    outer loop
      vertex 0 5 0
      vertex 17 5 5
      vertex 102 5 0
    endloop
  endfacet
  facet normal 0 0 1
    outer loop
      vertex 102 25 95.5
      vertex 90.5462 20 95.5
      vertex 102 10 95.5
    endloop
  endfacet
  facet normal 0 0 1
    outer loop
      vertex 102 25 95.5
      vertex 11.4538 20 95.5
      vertex 90.5462 20 95.5
    endloop
  endfacet
  facet normal -0 0 1
    outer loop
      vertex 0 25 95.5
      vertex 11.4538 20 95.5
      vertex 102 25 95.5
    endloop
  endfacet
  facet normal 0 0 1
    outer loop
      vertex 0 10 95.5
      vertex 11.4538 20 95.5
      vertex 0 25 95.5
    endloop
  endfacet
  facet normal 0 0 1
    outer loop
      vertex 11.4538 20 95.5
      vertex 0 10 95.5
      vertex 11.4538 10 95.5
    endloop
  endfacet
  facet normal 0 0 1
    outer loop
      vertex 102 10 95.5
      vertex 90.5462 20 95.5
      vertex 90.5462 10 95.5
    endloop
  endfacet
  facet normal 0 1 -0
    outer loop
      vertex 102 25 33.5
      vertex 0 25 95.5
      vertex 102 25 95.5
    endloop
  endfacet
  facet normal 0 1 0
    outer loop
      vertex 0 25 95.5
      vertex 102 25 33.5
      vertex 0 25 33.5
    endloop
  endfacet
  facet normal 0 0 -1
    outer loop
      vertex 8.11688 5 33.5
      vertex 0 5 33.5
      vertex 8.11688 10 33.5
    endloop
  endfacet
  facet normal 0 0 -1
    outer loop
      vertex 26.8477 10 33.5
      vertex 8.11688 10 33.5
      vertex 26.8477 20 33.5
    endloop
  endfacet
  facet normal 0 0 -1
    outer loop
      vertex 93.8831 10 33.5
      vertex 102 5 33.5
      vertex 93.8831 5 33.5
    endloop
  endfacet
  facet normal 0 0 -1
    outer loop
      vertex 102 5 33.5
      vertex 93.8831 10 33.5
      vertex 102 25 33.5
    endloop
  endfacet
  facet normal 0 0 -1
    outer loop
      vertex 75.1523 20 33.5
      vertex 93.8831 10 33.5
      vertex 75.1523 10 33.5
    endloop
  endfacet
  facet normal 0 0 -1
    outer loop
      vertex 93.8831 10 33.5
      vertex 75.1523 20 33.5
      vertex 102 25 33.5
    endloop
  endfacet
  facet normal 0 0 -1
    outer loop
      vertex 26.8477 20 33.5
      vertex 102 25 33.5
      vertex 75.1523 20 33.5
    endloop
  endfacet
  facet normal 0 0 -1
    outer loop
      vertex 26.8477 20 33.5
      vertex 0 25 33.5
      vertex 102 25 33.5
    endloop
  endfacet
  facet normal 0 0 -1
    outer loop
      vertex 8.11688 10 33.5
      vertex 0 25 33.5
      vertex 26.8477 20 33.5
    endloop
  endfacet
  facet normal 0 0 -1
    outer loop
      vertex 0 25 33.5
      vertex 8.11688 10 33.5
      vertex 0 5 33.5
    endloop
  endfacet
  facet normal -0.994522 0 0.104528
    outer loop
      vertex 95.9948 10 62.9361
      vertex 97 20 72.5
      vertex 95.9948 20 62.9361
    endloop
  endfacet
  facet normal -0.994522 0 0.104528
    outer loop
      vertex 97 20 72.5
      vertex 95.9948 10 62.9361
      vertex 97 10 72.5
    endloop
  endfacet
  facet normal 0.994522 -0 0.104529
    outer loop
      vertex 5 10 72.5
      vertex 6.00521 20 62.9361
      vertex 5 20 72.5
    endloop
  endfacet
  facet normal 0.994522 0 0.104529
    outer loop
      vertex 6.00521 20 62.9361
      vertex 5 10 72.5
      vertex 6.00521 10 62.9361
    endloop
  endfacet
  facet normal -0.743146 0 0.669129
    outer loop
      vertex 81.78 10 38.3153
      vertex 88.2148 20 45.4619
      vertex 81.78 20 38.3153
    endloop
  endfacet
  facet normal -0.743146 0 0.669129
    outer loop
      vertex 88.2148 20 45.4619
      vertex 81.78 10 38.3153
      vertex 88.2148 10 45.4619
    endloop
  endfacet
  facet normal -0.951057 0 0.309016
    outer loop
      vertex 93.0231 10 53.7901
      vertex 95.9948 20 62.9361
      vertex 93.0231 20 53.7901
    endloop
  endfacet
  facet normal -0.951057 0 0.309016
    outer loop
      vertex 95.9948 20 62.9361
      vertex 93.0231 10 53.7901
      vertex 95.9948 10 62.9361
    endloop
  endfacet
  facet normal 0.587785 0 0.809017
    outer loop
      vertex 20.22 20 38.3153
      vertex 26.8477 10 33.5
      vertex 26.8477 20 33.5
    endloop
  endfacet
  facet normal 0.587785 0 0.809017
    outer loop
      vertex 26.8477 10 33.5
      vertex 20.22 20 38.3153
      vertex 20.22 10 38.3153
    endloop
  endfacet
  facet normal -0.866025 0 -0.500001
    outer loop
      vertex 93.0231 10 91.2099
      vertex 90.5462 20 95.5
      vertex 93.0231 20 91.2099
    endloop
  endfacet
  facet normal -0.866025 -0 -0.500001
    outer loop
      vertex 90.5462 20 95.5
      vertex 93.0231 10 91.2099
      vertex 90.5462 10 95.5
    endloop
  endfacet
  facet normal -0.866025 0 0.500001
    outer loop
      vertex 88.2148 10 45.4619
      vertex 93.0231 20 53.7901
      vertex 88.2148 20 45.4619
    endloop
  endfacet
  facet normal -0.866025 0 0.500001
    outer loop
      vertex 93.0231 20 53.7901
      vertex 88.2148 10 45.4619
      vertex 93.0231 10 53.7901
    endloop
  endfacet
  facet normal -0.587785 0 0.809017
    outer loop
      vertex 75.1523 20 33.5
      vertex 81.78 10 38.3153
      vertex 81.78 20 38.3153
    endloop
  endfacet
  facet normal -0.587785 0 0.809017
    outer loop
      vertex 81.78 10 38.3153
      vertex 75.1523 20 33.5
      vertex 75.1523 10 33.5
    endloop
  endfacet
  facet normal 0.866025 -0 0.5
    outer loop
      vertex 8.97691 10 53.7901
      vertex 13.7852 20 45.4619
      vertex 8.97691 20 53.7901
    endloop
  endfacet
  facet normal 0.866025 0 0.5
    outer loop
      vertex 13.7852 20 45.4619
      vertex 8.97691 10 53.7901
      vertex 13.7852 10 45.4619
    endloop
  endfacet
  facet normal 0.743146 -0 0.669129
    outer loop
      vertex 13.7852 10 45.4619
      vertex 20.22 20 38.3153
      vertex 13.7852 20 45.4619
    endloop
  endfacet
  facet normal 0.743146 0 0.669129
    outer loop
      vertex 20.22 20 38.3153
      vertex 13.7852 10 45.4619
      vertex 20.22 10 38.3153
    endloop
  endfacet
  facet normal 0.951057 -0 0.309016
    outer loop
      vertex 6.00521 10 62.9361
      vertex 8.97691 20 53.7901
      vertex 6.00521 20 62.9361
    endloop
  endfacet
  facet normal 0.951057 0 0.309016
    outer loop
      vertex 8.97691 20 53.7901
      vertex 6.00521 10 62.9361
      vertex 8.97691 10 53.7901
    endloop
  endfacet
  facet normal 0 -1 0
    outer loop
      vertex 6.00521 20 82.0639
      vertex 11.4538 20 95.5
      vertex 8.97691 20 91.2099
    endloop
  endfacet
  facet normal 0 -1 0
    outer loop
      vertex 5 20 72.5
      vertex 11.4538 20 95.5
      vertex 6.00521 20 82.0639
    endloop
  endfacet
  facet normal 0 -1 0
    outer loop
      vertex 6.00521 20 62.9361
      vertex 11.4538 20 95.5
      vertex 5 20 72.5
    endloop
  endfacet
  facet normal 0 -1 0
    outer loop
      vertex 90.5462 20 95.5
      vertex 95.9948 20 82.0639
      vertex 93.0231 20 91.2099
    endloop
  endfacet
  facet normal 0 -1 -0
    outer loop
      vertex 11.4538 20 95.5
      vertex 6.00521 20 62.9361
      vertex 90.5462 20 95.5
    endloop
  endfacet
  facet normal 0 -1 0
    outer loop
      vertex 90.5462 20 95.5
      vertex 97 20 72.5
      vertex 95.9948 20 82.0639
    endloop
  endfacet
  facet normal 0 -1 0
    outer loop
      vertex 95.9948 20 62.9361
      vertex 90.5462 20 95.5
      vertex 6.00521 20 62.9361
    endloop
  endfacet
  facet normal 0 -1 0
    outer loop
      vertex 90.5462 20 95.5
      vertex 95.9948 20 62.9361
      vertex 97 20 72.5
    endloop
  endfacet
  facet normal 0 -1 0
    outer loop
      vertex 8.97691 20 53.7901
      vertex 95.9948 20 62.9361
      vertex 6.00521 20 62.9361
    endloop
  endfacet
  facet normal 0 -1 0
    outer loop
      vertex 8.97691 20 53.7901
      vertex 93.0231 20 53.7901
      vertex 95.9948 20 62.9361
    endloop
  endfacet
  facet normal 0 -1 0
    outer loop
      vertex 13.7852 20 45.4619
      vertex 93.0231 20 53.7901
      vertex 8.97691 20 53.7901
    endloop
  endfacet
  facet normal 0 -1 0
    outer loop
      vertex 13.7852 20 45.4619
      vertex 88.2148 20 45.4619
      vertex 93.0231 20 53.7901
    endloop
  endfacet
  facet normal 0 -1 0
    outer loop
      vertex 26.8477 20 33.5
      vertex 13.7852 20 45.4619
      vertex 20.22 20 38.3153
    endloop
  endfacet
  facet normal 0 -1 0
    outer loop
      vertex 13.7852 20 45.4619
      vertex 26.8477 20 33.5
      vertex 88.2148 20 45.4619
    endloop
  endfacet
  facet normal 0 -1 0
    outer loop
      vertex 75.1523 20 33.5
      vertex 88.2148 20 45.4619
      vertex 26.8477 20 33.5
    endloop
  endfacet
  facet normal 0 -1 0
    outer loop
      vertex 88.2148 20 45.4619
      vertex 75.1523 20 33.5
      vertex 81.78 20 38.3153
    endloop
  endfacet
  facet normal -0.951057 0 -0.309016
    outer loop
      vertex 95.9948 10 82.0639
      vertex 93.0231 20 91.2099
      vertex 95.9948 20 82.0639
    endloop
  endfacet
  facet normal -0.951057 -0 -0.309016
    outer loop
      vertex 93.0231 20 91.2099
      vertex 95.9948 10 82.0639
      vertex 93.0231 10 91.2099
    endloop
  endfacet
  facet normal -0.994522 0 -0.104528
    outer loop
      vertex 97 10 72.5
      vertex 95.9948 20 82.0639
      vertex 97 20 72.5
    endloop
  endfacet
  facet normal -0.994522 -0 -0.104528
    outer loop
      vertex 95.9948 20 82.0639
      vertex 97 10 72.5
      vertex 95.9948 10 82.0639
    endloop
  endfacet
  facet normal 0.866025 0 -0.5
    outer loop
      vertex 11.4538 10 95.5
      vertex 8.97691 20 91.2099
      vertex 11.4538 20 95.5
    endloop
  endfacet
  facet normal 0.866025 0 -0.5
    outer loop
      vertex 8.97691 20 91.2099
      vertex 11.4538 10 95.5
      vertex 8.97691 10 91.2099
    endloop
  endfacet
  facet normal 0.994522 0 -0.104529
    outer loop
      vertex 6.00521 10 82.0639
      vertex 5 20 72.5
      vertex 6.00521 20 82.0639
    endloop
  endfacet
  facet normal 0.994522 0 -0.104529
    outer loop
      vertex 5 20 72.5
      vertex 6.00521 10 82.0639
      vertex 5 10 72.5
    endloop
  endfacet
  facet normal 0.951057 0 -0.309016
    outer loop
      vertex 8.97691 10 91.2099
      vertex 6.00521 20 82.0639
      vertex 8.97691 20 91.2099
    endloop
  endfacet
  facet normal 0.951057 0 -0.309016
    outer loop
      vertex 6.00521 20 82.0639
      vertex 8.97691 10 91.2099
      vertex 6.00521 10 82.0639
    endloop
  endfacet
  facet normal -1 0 0
    outer loop
      vertex 0 57.5 -9
      vertex 0 48 -5.25
      vertex 0 57.5 -1.5
    endloop
  endfacet
  facet normal -1 0 0
    outer loop
      vertex 0 57.5 -9
      vertex 0 42.5 -5.25
      vertex 0 48 -5.25
    endloop
  endfacet
  facet normal -1 0 0
    outer loop
      vertex 0 42.5 -5.25
      vertex 0 38.1905 -1.5
      vertex 0 42.5 -1.5
    endloop
  endfacet
  facet normal -1 -0 0
    outer loop
      vertex 0 42.5 -5.25
      vertex 0 37.648 -5.62019
      vertex 0 38.1905 -1.5
    endloop
  endfacet
  facet normal -1 0 0
    outer loop
      vertex 0 57.5 -9
      vertex 0 37.648 -5.62019
      vertex 0 42.5 -5.25
    endloop
  endfacet
  facet normal -1 0 0
    outer loop
      vertex 0 27.2507 -5.94127
      vertex 0 37.648 -5.62019
      vertex 0 57.5 -9
    endloop
  endfacet
  facet normal -1 -0 0
    outer loop
      vertex 0 32.1951 -4.9023
      vertex 0 27.2507 -5.94127
      vertex 0 28.4408 -1.5
    endloop
  endfacet
  facet normal -1 -0 0
    outer loop
      vertex 0 37.648 -5.62019
      vertex 0 27.2507 -5.94127
      vertex 0 32.1951 -4.9023
    endloop
  endfacet
  facet normal -1 -0 0
    outer loop
      vertex 0 21.9381 -4.51777
      vertex 0 16.8149 -6.20775
      vertex 0 18.7649 -1.5
    endloop
  endfacet
  facet normal -1 -0 0
    outer loop
      vertex 0 27.2507 -5.94127
      vertex 0 16.8149 -6.20775
      vertex 0 21.9381 -4.51777
    endloop
  endfacet
  facet normal -1 0 0
    outer loop
      vertex 0 -2.5 -9
      vertex 0 27.2507 -5.94127
      vertex 0 57.5 -9
    endloop
  endfacet
  facet normal -1 -0 0
    outer loop
      vertex 0 11.7336 -4.10299
      vertex 0 6.34808 -6.41506
      vertex 0 9.18579 -1.5
    endloop
  endfacet
  facet normal -1 -0 0
    outer loop
      vertex 0 16.8149 -6.20775
      vertex 0 6.34808 -6.41506
      vertex 0 11.7336 -4.10299
    endloop
  endfacet
  facet normal -1 0 0
    outer loop
      vertex 0 27.2507 -5.94127
      vertex 0 -2.5 -9
      vertex 0 16.8149 -6.20775
    endloop
  endfacet
  facet normal -1 -0 0
    outer loop
      vertex 0 6.34808 -6.41506
      vertex 0 -2.5 -9
      vertex 0 1.58494 -3.66506
    endloop
  endfacet
  facet normal -1 0 0
    outer loop
      vertex 0 16.8149 -6.20775
      vertex 0 -2.5 -9
      vertex 0 6.34808 -6.41506
    endloop
  endfacet
  facet normal -1 -0 0
    outer loop
      vertex 0 57.5 -1.5
      vertex 0 48 -5.25
      vertex 0 48 -1.5
    endloop
  endfacet
  facet normal -1 -0 0
    outer loop
      vertex 0 32.643 -1.5
      vertex 0 32.1951 -4.9023
      vertex 0 28.4408 -1.5
    endloop
  endfacet
  facet normal -1 -0 0
    outer loop
      vertex 0 22.7467 -1.5
      vertex 0 21.9381 -4.51777
      vertex 0 18.7649 -1.5
    endloop
  endfacet
  facet normal -1 -0 0
    outer loop
      vertex 0 12.8118 -1.5
      vertex 0 11.7336 -4.10299
      vertex 0 9.18579 -1.5
    endloop
  endfacet
  facet normal -1 0 0
    outer loop
      vertex 0 -2.5 -1.5
      vertex 0 1.58494 -3.66506
      vertex 0 -2.5 -9
    endloop
  endfacet
  facet normal -1 0 0
    outer loop
      vertex 0 1.58494 -3.66506
      vertex 0 -2.5 -1.5
      vertex 0 2.83494 -1.5
    endloop
  endfacet
  facet normal -0 0 1
    outer loop
      vertex 0 2.83494 -1.5
      vertex 102 -2.5 -1.5
      vertex 102 2.83494 -1.5
    endloop
  endfacet
  facet normal 0 0 1
    outer loop
      vertex 102 -2.5 -1.5
      vertex 0 2.83494 -1.5
      vertex 0 -2.5 -1.5
    endloop
  endfacet
  facet normal -0 0 1
    outer loop
      vertex 0 57.5 -1.5
      vertex 102 48 -1.5
      vertex 102 57.5 -1.5
    endloop
  endfacet
  facet normal 0 0 1
    outer loop
      vertex 102 48 -1.5
      vertex 0 57.5 -1.5
      vertex 0 48 -1.5
    endloop
  endfacet
  facet normal -0 0 1
    outer loop
      vertex 0 12.8118 -1.5
      vertex 102 9.18579 -1.5
      vertex 102 12.8118 -1.5
    endloop
  endfacet
  facet normal 0 0 1
    outer loop
      vertex 102 9.18579 -1.5
      vertex 0 12.8118 -1.5
      vertex 0 9.18579 -1.5
    endloop
  endfacet
  facet normal -0 0 1
    outer loop
      vertex 0 22.7467 -1.5
      vertex 102 18.7649 -1.5
      vertex 102 22.7467 -1.5
    endloop
  endfacet
  facet normal 0 0 1
    outer loop
      vertex 102 18.7649 -1.5
      vertex 0 22.7467 -1.5
      vertex 0 18.7649 -1.5
    endloop
  endfacet
  facet normal -0 0 1
    outer loop
      vertex 0 32.643 -1.5
      vertex 102 28.4408 -1.5
      vertex 102 32.643 -1.5
    endloop
  endfacet
  facet normal 0 0 1
    outer loop
      vertex 102 28.4408 -1.5
      vertex 0 32.643 -1.5
      vertex 0 28.4408 -1.5
    endloop
  endfacet
  facet normal -0 0 1
    outer loop
      vertex 0 42.5 -1.5
      vertex 102 38.1905 -1.5
      vertex 102 42.5 -1.5
    endloop
  endfacet
  facet normal 0 0 1
    outer loop
      vertex 102 38.1905 -1.5
      vertex 0 42.5 -1.5
      vertex 0 38.1905 -1.5
    endloop
  endfacet
  facet normal 1 0 0
    outer loop
      vertex 102 2.83494 -1.5
      vertex 102 -2.5 -1.5
      vertex 102 1.58494 -3.66506
    endloop
  endfacet
  facet normal 1 0 0
    outer loop
      vertex 102 12.8118 -1.5
      vertex 102 9.18579 -1.5
      vertex 102 11.7336 -4.10299
    endloop
  endfacet
  facet normal 1 0 0
    outer loop
      vertex 102 22.7467 -1.5
      vertex 102 18.7649 -1.5
      vertex 102 21.9381 -4.51777
    endloop
  endfacet
  facet normal 1 0 0
    outer loop
      vertex 102 32.643 -1.5
      vertex 102 28.4408 -1.5
      vertex 102 32.1951 -4.9023
    endloop
  endfacet
  facet normal 1 0 0
    outer loop
      vertex 102 42.5 -1.5
      vertex 102 38.1905 -1.5
      vertex 102 42.5 -5.25
    endloop
  endfacet
  facet normal 1 0 0
    outer loop
      vertex 102 48 -5.25
      vertex 102 57.5 -1.5
      vertex 102 48 -1.5
    endloop
  endfacet
  facet normal 1 0 0
    outer loop
      vertex 102 57.5 -1.5
      vertex 102 48 -5.25
      vertex 102 57.5 -9
    endloop
  endfacet
  facet normal 1 -0 0
    outer loop
      vertex 102 42.5 -5.25
      vertex 102 57.5 -9
      vertex 102 48 -5.25
    endloop
  endfacet
  facet normal 1 0 0
    outer loop
      vertex 102 37.648 -5.62019
      vertex 102 42.5 -5.25
      vertex 102 38.1905 -1.5
    endloop
  endfacet
  facet normal 1 -0 0
    outer loop
      vertex 102 37.648 -5.62019
      vertex 102 57.5 -9
      vertex 102 42.5 -5.25
    endloop
  endfacet
  facet normal 1 0 0
    outer loop
      vertex 102 27.2507 -5.94127
      vertex 102 37.648 -5.62019
      vertex 102 32.1951 -4.9023
    endloop
  endfacet
  facet normal 1 0 0
    outer loop
      vertex 102 27.2507 -5.94127
      vertex 102 32.1951 -4.9023
      vertex 102 28.4408 -1.5
    endloop
  endfacet
  facet normal 1 0 0
    outer loop
      vertex 102 37.648 -5.62019
      vertex 102 27.2507 -5.94127
      vertex 102 57.5 -9
    endloop
  endfacet
  facet normal 1 0 0
    outer loop
      vertex 102 16.8149 -6.20775
      vertex 102 21.9381 -4.51777
      vertex 102 18.7649 -1.5
    endloop
  endfacet
  facet normal 1 0 0
    outer loop
      vertex 102 16.8149 -6.20775
      vertex 102 27.2507 -5.94127
      vertex 102 21.9381 -4.51777
    endloop
  endfacet
  facet normal 1 0 0
    outer loop
      vertex 102 -2.5 -9
      vertex 102 27.2507 -5.94127
      vertex 102 16.8149 -6.20775
    endloop
  endfacet
  facet normal 1 0 0
    outer loop
      vertex 102 6.34808 -6.41506
      vertex 102 11.7336 -4.10299
      vertex 102 9.18579 -1.5
    endloop
  endfacet
  facet normal 1 0 0
    outer loop
      vertex 102 6.34808 -6.41506
      vertex 102 16.8149 -6.20775
      vertex 102 11.7336 -4.10299
    endloop
  endfacet
  facet normal 1 0 0
    outer loop
      vertex 102 -2.5 -9
      vertex 102 16.8149 -6.20775
      vertex 102 6.34808 -6.41506
    endloop
  endfacet
  facet normal 1 0 0
    outer loop
      vertex 102 -2.5 -9
      vertex 102 1.58494 -3.66506
      vertex 102 -2.5 -1.5
    endloop
  endfacet
  facet normal 1 0 0
    outer loop
      vertex 102 27.2507 -5.94127
      vertex 102 -2.5 -9
      vertex 102 57.5 -9
    endloop
  endfacet
  facet normal 1 0 0
    outer loop
      vertex 102 1.58494 -3.66506
      vertex 102 -2.5 -9
      vertex 102 6.34808 -6.41506
    endloop
  endfacet
  facet normal 0 0 -1
    outer loop
      vertex 0 -2.5 -9
      vertex 102 57.5 -9
      vertex 102 -2.5 -9
    endloop
  endfacet
  facet normal -0 0 -1
    outer loop
      vertex 102 57.5 -9
      vertex 0 -2.5 -9
      vertex 0 57.5 -9
    endloop
  endfacet
  facet normal 0 -1 0
    outer loop
      vertex 0 -2.5 -9
      vertex 102 -2.5 -1.5
      vertex 0 -2.5 -1.5
    endloop
  endfacet
  facet normal 0 -1 -0
    outer loop
      vertex 102 -2.5 -1.5
      vertex 0 -2.5 -9
      vertex 102 -2.5 -9
    endloop
  endfacet
  facet normal 0 1 -0
    outer loop
      vertex 102 57.5 -9
      vertex 0 57.5 -1.5
      vertex 102 57.5 -1.5
    endloop
  endfacet
  facet normal 0 1 0
    outer loop
      vertex 0 57.5 -1.5
      vertex 102 57.5 -9
      vertex 0 57.5 -9
    endloop
  endfacet
  facet normal 0 -0.866025 0.5
    outer loop
      vertex 0 6.34808 -6.41506
      vertex 102 9.18579 -1.5
      vertex 0 9.18579 -1.5
    endloop
  endfacet
  facet normal 0 -0.866025 0.5
    outer loop
      vertex 102 9.18579 -1.5
      vertex 0 6.34808 -6.41506
      vertex 102 6.34808 -6.41506
    endloop
  endfacet
  facet normal -0 0.5 0.866025
    outer loop
      vertex 0 6.34808 -6.41506
      vertex 102 1.58494 -3.66506
      vertex 102 6.34808 -6.41506
    endloop
  endfacet
  facet normal 0 0.5 0.866025
    outer loop
      vertex 102 1.58494 -3.66506
      vertex 0 6.34808 -6.41506
      vertex 0 1.58494 -3.66506
    endloop
  endfacet
  facet normal 0 0.866025 -0.500001
    outer loop
      vertex 102 1.58494 -3.66506
      vertex 0 2.83494 -1.5
      vertex 102 2.83494 -1.5
    endloop
  endfacet
  facet normal 0 0.866025 -0.500001
    outer loop
      vertex 0 2.83494 -1.5
      vertex 102 1.58494 -3.66506
      vertex 0 1.58494 -3.66506
    endloop
  endfacet
  facet normal 0 -0.92388 0.382681
    outer loop
      vertex 0 16.8149 -6.20775
      vertex 102 18.7649 -1.5
      vertex 0 18.7649 -1.5
    endloop
  endfacet
  facet normal 0 -0.92388 0.382681
    outer loop
      vertex 102 18.7649 -1.5
      vertex 0 16.8149 -6.20775
      vertex 102 16.8149 -6.20775
    endloop
  endfacet
  facet normal -0 0.382686 0.923878
    outer loop
      vertex 0 16.8149 -6.20775
      vertex 102 11.7336 -4.10299
      vertex 102 16.8149 -6.20775
    endloop
  endfacet
  facet normal 0 0.382686 0.923878
    outer loop
      vertex 102 11.7336 -4.10299
      vertex 0 16.8149 -6.20775
      vertex 0 11.7336 -4.10299
    endloop
  endfacet
  facet normal 0 0.923879 -0.382685
    outer loop
      vertex 102 11.7336 -4.10299
      vertex 0 12.8118 -1.5
      vertex 102 12.8118 -1.5
    endloop
  endfacet
  facet normal 0 0.923879 -0.382685
    outer loop
      vertex 0 12.8118 -1.5
      vertex 102 11.7336 -4.10299
      vertex 0 11.7336 -4.10299
    endloop
  endfacet
  facet normal 0 -0.965922 0.258832
    outer loop
      vertex 0 27.2507 -5.94127
      vertex 102 28.4408 -1.5
      vertex 0 28.4408 -1.5
    endloop
  endfacet
  facet normal 0 -0.965922 0.258832
    outer loop
      vertex 102 28.4408 -1.5
      vertex 0 27.2507 -5.94127
      vertex 102 27.2507 -5.94127
    endloop
  endfacet
  facet normal -0 0.258818 0.965926
    outer loop
      vertex 0 27.2507 -5.94127
      vertex 102 21.9381 -4.51777
      vertex 102 27.2507 -5.94127
    endloop
  endfacet
  facet normal 0 0.258818 0.965926
    outer loop
      vertex 102 21.9381 -4.51777
      vertex 0 27.2507 -5.94127
      vertex 0 21.9381 -4.51777
    endloop
  endfacet
  facet normal 0 0.965927 -0.258816
    outer loop
      vertex 102 21.9381 -4.51777
      vertex 0 22.7467 -1.5
      vertex 102 22.7467 -1.5
    endloop
  endfacet
  facet normal 0 0.965927 -0.258816
    outer loop
      vertex 0 22.7467 -1.5
      vertex 102 21.9381 -4.51777
      vertex 0 21.9381 -4.51777
    endloop
  endfacet
  facet normal 0 -0.991443 0.130542
    outer loop
      vertex 0 37.648 -5.62019
      vertex 102 38.1905 -1.5
      vertex 0 38.1905 -1.5
    endloop
  endfacet
  facet normal 0 -0.991443 0.130542
    outer loop
      vertex 102 38.1905 -1.5
      vertex 0 37.648 -5.62019
      vertex 102 37.648 -5.62019
    endloop
  endfacet
  facet normal -0 0.130527 0.991445
    outer loop
      vertex 0 37.648 -5.62019
      vertex 102 32.1951 -4.9023
      vertex 102 37.648 -5.62019
    endloop
  endfacet
  facet normal 0 0.130527 0.991445
    outer loop
      vertex 102 32.1951 -4.9023
      vertex 0 37.648 -5.62019
      vertex 0 32.1951 -4.9023
    endloop
  endfacet
  facet normal 0 0.991446 -0.13052
    outer loop
      vertex 102 32.1951 -4.9023
      vertex 0 32.643 -1.5
      vertex 102 32.643 -1.5
    endloop
  endfacet
  facet normal 0 0.991446 -0.13052
    outer loop
      vertex 0 32.643 -1.5
      vertex 102 32.1951 -4.9023
      vertex 0 32.1951 -4.9023
    endloop
  endfacet
  facet normal 0 -1 0
    outer loop
      vertex 0 48 -5.25
      vertex 102 48 -1.5
      vertex 0 48 -1.5
    endloop
  endfacet
  facet normal 0 -1 -0
    outer loop
      vertex 102 48 -1.5
      vertex 0 48 -5.25
      vertex 102 48 -5.25
    endloop
  endfacet
  facet normal -0 0 1
    outer loop
      vertex 0 48 -5.25
      vertex 102 42.5 -5.25
      vertex 102 48 -5.25
    endloop
  endfacet
  facet normal 0 0 1
    outer loop
      vertex 102 42.5 -5.25
      vertex 0 48 -5.25
      vertex 0 42.5 -5.25
    endloop
  endfacet
  facet normal 0 1 -0
    outer loop
      vertex 102 42.5 -5.25
      vertex 0 42.5 -1.5
      vertex 102 42.5 -1.5
    endloop
  endfacet
  facet normal 0 1 0
    outer loop
      vertex 0 42.5 -1.5
      vertex 102 42.5 -5.25
      vertex 0 42.5 -5.25
    endloop
  endfacet
endsolid OpenSCAD_Model
