solid OpenSCAD_Model
  facet normal -1 0 0
    outer loop
      vertex -2 2 0
      vertex -2 0.00999928 10
      vertex -2 2 10
    endloop
  endfacet
  facet normal -1 0 0
    outer loop
      vertex -2 0 0
      vertex -2 0.00999928 10
      vertex -2 2 0
    endloop
  endfacet
  facet normal -1 -0 0
    outer loop
      vertex -2 0.00999928 10
      vertex -2 0 0
      vertex -2 0 10
    endloop
  endfacet
  facet normal -1 0 0
    outer loop
      vertex -2 2 10
      vertex -2 2.01 25
      vertex -2 2.01 10
    endloop
  endfacet
  facet normal -1 0 0
    outer loop
      vertex -2 0.00999928 10
      vertex -2 2.01 25
      vertex -2 2 10
    endloop
  endfacet
  facet normal -1 -0 0
    outer loop
      vertex -2 2.01 25
      vertex -2 0.00999928 10
      vertex -2 0.00999928 25
    endloop
  endfacet
  facet normal -0 0 1
    outer loop
      vertex -2 2.01 25
      vertex 8 0.00999928 25
      vertex 8 2.01 25
    endloop
  endfacet
  facet normal 0 0 1
    outer loop
      vertex 8 0.00999928 25
      vertex -2 2.01 25
      vertex -2 0.00999928 25
    endloop
  endfacet
  facet normal 1 -0 0
    outer loop
      vertex 8 0.00999928 25
      vertex 8 2.01 10
      vertex 8 2.01 25
    endloop
  endfacet
  facet normal 1 0 0
    outer loop
      vertex 8 2.01 10
      vertex 8 0.00999928 25
      vertex 8 0.00999928 10
    endloop
  endfacet
  facet normal 0 1 0
    outer loop
      vertex 8 2.01 25
      vertex 6 2.01 23
      vertex -2 2.01 25
    endloop
  endfacet
  facet normal 0 1 0
    outer loop
      vertex 8 2.01 25
      vertex 6 2.01 12
      vertex 6 2.01 23
    endloop
  endfacet
  facet normal 0 1 0
    outer loop
      vertex 6 2.01 12
      vertex 8 2.01 10
      vertex 0 2.01 12
    endloop
  endfacet
  facet normal 0 1 -0
    outer loop
      vertex 8 2.01 10
      vertex 6 2.01 12
      vertex 8 2.01 25
    endloop
  endfacet
  facet normal 0 1 -0
    outer loop
      vertex 0 2.01 23
      vertex -2 2.01 25
      vertex 6 2.01 23
    endloop
  endfacet
  facet normal 0 1 -0
    outer loop
      vertex 0 2.01 12
      vertex -2 2.01 25
      vertex 0 2.01 23
    endloop
  endfacet
  facet normal 0 1 0
    outer loop
      vertex 0 2.01 12
      vertex -2 2.01 10
      vertex -2 2.01 25
    endloop
  endfacet
  facet normal 0 1 0
    outer loop
      vertex -2 2.01 10
      vertex 0 2.01 12
      vertex 8 2.01 10
    endloop
  endfacet
  facet normal -0 0 1
    outer loop
      vertex -2 0.00999928 10
      vertex 0 0 10
      vertex 0 0.00999928 10
    endloop
  endfacet
  facet normal 0 0 1
    outer loop
      vertex 0 0 10
      vertex -2 0.00999928 10
      vertex -2 0 10
    endloop
  endfacet
  facet normal 0 0 -1
    outer loop
      vertex 0 0.00999928 10
      vertex 8 2.01 10
      vertex 8 0.00999928 10
    endloop
  endfacet
  facet normal 0 0 -1
    outer loop
      vertex 0 2 10
      vertex 8 2.01 10
      vertex 0 0.00999928 10
    endloop
  endfacet
  facet normal 0 0 -1
    outer loop
      vertex -2 2.01 10
      vertex 0 2 10
      vertex -2 2 10
    endloop
  endfacet
  facet normal 0 0 -1
    outer loop
      vertex 0 2 10
      vertex -2 2.01 10
      vertex 8 2.01 10
    endloop
  endfacet
  facet normal 0 -1 0
    outer loop
      vertex -2 0.00999928 25
      vertex 0 0.00999928 23
      vertex 8 0.00999928 25
    endloop
  endfacet
  facet normal 0 -1 0
    outer loop
      vertex -2 0.00999928 25
      vertex 0 0.00999928 12
      vertex 0 0.00999928 23
    endloop
  endfacet
  facet normal 0 -1 0
    outer loop
      vertex 0 0.00999928 10
      vertex 0 0.00999928 12
      vertex -2 0.00999928 10
    endloop
  endfacet
  facet normal 0 -1 0
    outer loop
      vertex -2 0.00999928 10
      vertex 0 0.00999928 12
      vertex -2 0.00999928 25
    endloop
  endfacet
  facet normal 0 -1 0
    outer loop
      vertex 6 0.00999928 23
      vertex 8 0.00999928 25
      vertex 0 0.00999928 23
    endloop
  endfacet
  facet normal 0 -1 0
    outer loop
      vertex 6 0.00999928 12
      vertex 8 0.00999928 25
      vertex 6 0.00999928 23
    endloop
  endfacet
  facet normal 0 -1 0
    outer loop
      vertex 0 0.00999928 12
      vertex 0 0.00999928 10
      vertex 6 0.00999928 12
    endloop
  endfacet
  facet normal 0 -1 0
    outer loop
      vertex 6 0.00999928 12
      vertex 8 0.00999928 10
      vertex 8 0.00999928 25
    endloop
  endfacet
  facet normal 0 -1 0
    outer loop
      vertex 8 0.00999928 10
      vertex 6 0.00999928 12
      vertex 0 0.00999928 10
    endloop
  endfacet
  facet normal 1 -0 0
    outer loop
      vertex 0 0.00999928 23
      vertex 0 2.01 12
      vertex 0 2.01 23
    endloop
  endfacet
  facet normal 1 0 0
    outer loop
      vertex 0 2.01 12
      vertex 0 0.00999928 23
      vertex 0 0.00999928 12
    endloop
  endfacet
  facet normal 0 0 -1
    outer loop
      vertex 0 0.00999928 23
      vertex 6 2.01 23
      vertex 6 0.00999928 23
    endloop
  endfacet
  facet normal -0 0 -1
    outer loop
      vertex 6 2.01 23
      vertex 0 0.00999928 23
      vertex 0 2.01 23
    endloop
  endfacet
  facet normal -1 0 0
    outer loop
      vertex 6 0.00999928 12
      vertex 6 2.01 23
      vertex 6 2.01 12
    endloop
  endfacet
  facet normal -1 -0 0
    outer loop
      vertex 6 2.01 23
      vertex 6 0.00999928 12
      vertex 6 0.00999928 23
    endloop
  endfacet
  facet normal -0 0 1
    outer loop
      vertex 0 2.01 12
      vertex 6 0.00999928 12
      vertex 6 2.01 12
    endloop
  endfacet
  facet normal 0 0 1
    outer loop
      vertex 6 0.00999928 12
      vertex 0 2.01 12
      vertex 0 0.00999928 12
    endloop
  endfacet
  facet normal 1 -0 0
    outer loop
      vertex 0 0.00999928 10
      vertex 0 2 2
      vertex 0 2 10
    endloop
  endfacet
  facet normal 1 0 0
    outer loop
      vertex 0 0 2
      vertex 0 0.00999928 10
      vertex 0 0 10
    endloop
  endfacet
  facet normal 1 0 0
    outer loop
      vertex 0 0.00999928 10
      vertex 0 0 2
      vertex 0 2 2
    endloop
  endfacet
  facet normal -0 0 1
    outer loop
      vertex 0 2 2
      vertex 8 0 2
      vertex 8 2 2
    endloop
  endfacet
  facet normal 0 0 1
    outer loop
      vertex 8 0 2
      vertex 0 2 2
      vertex 0 0 2
    endloop
  endfacet
  facet normal 1 -0 0
    outer loop
      vertex 9.41421 0 3.41421
      vertex 9.41421 2 0
      vertex 9.41421 2 3.41421
    endloop
  endfacet
  facet normal 1 0 0
    outer loop
      vertex 9.41421 2 0
      vertex 9.41421 0 3.41421
      vertex 9.41421 0 0
    endloop
  endfacet
  facet normal 0 0 -1
    outer loop
      vertex -2 0 0
      vertex 9.41421 2 0
      vertex 9.41421 0 0
    endloop
  endfacet
  facet normal -0 0 -1
    outer loop
      vertex 9.41421 2 0
      vertex -2 0 0
      vertex -2 2 0
    endloop
  endfacet
  facet normal 0 -1 0
    outer loop
      vertex -2 0 10
      vertex 0 0 2
      vertex 0 0 10
    endloop
  endfacet
  facet normal 0 -1 0
    outer loop
      vertex 9.41421 0 0
      vertex 0 0 2
      vertex -2 0 0
    endloop
  endfacet
  facet normal 0 -1 0
    outer loop
      vertex -2 0 0
      vertex 0 0 2
      vertex -2 0 10
    endloop
  endfacet
  facet normal 0 -1 0
    outer loop
      vertex 8 0 2
      vertex 9.41421 0 0
      vertex 9.41421 0 3.41421
    endloop
  endfacet
  facet normal 0 -1 0
    outer loop
      vertex 0 0 2
      vertex 9.41421 0 0
      vertex 8 0 2
    endloop
  endfacet
  facet normal 0 1 0
    outer loop
      vertex 8 2 2
      vertex 9.41421 2 0
      vertex 0 2 2
    endloop
  endfacet
  facet normal 0 1 -0
    outer loop
      vertex 9.41421 2 0
      vertex 8 2 2
      vertex 9.41421 2 3.41421
    endloop
  endfacet
  facet normal 0 1 -0
    outer loop
      vertex 0 2 2
      vertex -2 2 10
      vertex 0 2 10
    endloop
  endfacet
  facet normal 0 1 0
    outer loop
      vertex 0 2 2
      vertex -2 2 0
      vertex -2 2 10
    endloop
  endfacet
  facet normal 0 1 0
    outer loop
      vertex -2 2 0
      vertex 0 2 2
      vertex 9.41421 2 0
    endloop
  endfacet
  facet normal -0.707107 0 0.707107
    outer loop
      vertex 8 0 2
      vertex 9.41421 2 3.41421
      vertex 8 2 2
    endloop
  endfacet
  facet normal -0.707107 0 0.707107
    outer loop
      vertex 9.41421 2 3.41421
      vertex 8 0 2
      vertex 9.41421 0 3.41421
    endloop
  endfacet
endsolid OpenSCAD_Model
