solid OpenSCAD_Model
  facet normal -1 0 0
    outer loop
      vertex -2 2 0
      vertex -2 0.00999928 9
      vertex -2 2 9
    endloop
  endfacet
  facet normal -1 0 0
    outer loop
      vertex -2 0 0
      vertex -2 0.00999928 9
      vertex -2 2 0
    endloop
  endfacet
  facet normal -1 -0 0
    outer loop
      vertex -2 0.00999928 9
      vertex -2 0 0
      vertex -2 0 9
    endloop
  endfacet
  facet normal -1 0 0
    outer loop
      vertex -2 2 9
      vertex -2 2.01 25
      vertex -2 2.01 9
    endloop
  endfacet
  facet normal -1 0 0
    outer loop
      vertex -2 0.00999928 9
      vertex -2 2.01 25
      vertex -2 2 9
    endloop
  endfacet
  facet normal -1 -0 0
    outer loop
      vertex -2 2.01 25
      vertex -2 0.00999928 9
      vertex -2 0.00999928 25
    endloop
  endfacet
  facet normal -0 0 1
    outer loop
      vertex -2 2.01 25
      vertex 8 0.00999928 25
      vertex 8 2.01 25
    endloop
  endfacet
  facet normal 0 0 1
    outer loop
      vertex 8 0.00999928 25
      vertex -2 2.01 25
      vertex -2 0.00999928 25
    endloop
  endfacet
  facet normal 1 -0 0
    outer loop
      vertex 8 0.00999928 25
      vertex 8 2.01 9
      vertex 8 2.01 25
    endloop
  endfacet
  facet normal 1 0 0
    outer loop
      vertex 8 2.01 9
      vertex 8 0.00999928 25
      vertex 8 0.00999928 9
    endloop
  endfacet
  facet normal 0 1 0
    outer loop
      vertex 8 2.01 25
      vertex 6 2.01 23
      vertex -2 2.01 25
    endloop
  endfacet
  facet normal 0 1 0
    outer loop
      vertex 8 2.01 25
      vertex 6 2.01 11
      vertex 6 2.01 23
    endloop
  endfacet
  facet normal 0 1 0
    outer loop
      vertex 6 2.01 11
      vertex 8 2.01 9
      vertex 0 2.01 11
    endloop
  endfacet
  facet normal 0 1 -0
    outer loop
      vertex 8 2.01 9
      vertex 6 2.01 11
      vertex 8 2.01 25
    endloop
  endfacet
  facet normal 0 1 -0
    outer loop
      vertex 0 2.01 23
      vertex -2 2.01 25
      vertex 6 2.01 23
    endloop
  endfacet
  facet normal 0 1 -0
    outer loop
      vertex 0 2.01 11
      vertex -2 2.01 25
      vertex 0 2.01 23
    endloop
  endfacet
  facet normal 0 1 0
    outer loop
      vertex 0 2.01 11
      vertex -2 2.01 9
      vertex -2 2.01 25
    endloop
  endfacet
  facet normal 0 1 0
    outer loop
      vertex -2 2.01 9
      vertex 0 2.01 11
      vertex 8 2.01 9
    endloop
  endfacet
  facet normal -0 0 1
    outer loop
      vertex -2 0.00999928 9
      vertex 0 0 9
      vertex 0 0.00999928 9
    endloop
  endfacet
  facet normal 0 0 1
    outer loop
      vertex 0 0 9
      vertex -2 0.00999928 9
      vertex -2 0 9
    endloop
  endfacet
  facet normal 0 0 -1
    outer loop
      vertex 0 0.00999928 9
      vertex 8 2.01 9
      vertex 8 0.00999928 9
    endloop
  endfacet
  facet normal 0 0 -1
    outer loop
      vertex 0 2 9
      vertex 8 2.01 9
      vertex 0 0.00999928 9
    endloop
  endfacet
  facet normal 0 0 -1
    outer loop
      vertex -2 2.01 9
      vertex 0 2 9
      vertex -2 2 9
    endloop
  endfacet
  facet normal 0 0 -1
    outer loop
      vertex 0 2 9
      vertex -2 2.01 9
      vertex 8 2.01 9
    endloop
  endfacet
  facet normal 0 -1 0
    outer loop
      vertex -2 0.00999928 25
      vertex 0 0.00999928 23
      vertex 8 0.00999928 25
    endloop
  endfacet
  facet normal 0 -1 0
    outer loop
      vertex -2 0.00999928 25
      vertex 0 0.00999928 11
      vertex 0 0.00999928 23
    endloop
  endfacet
  facet normal 0 -1 0
    outer loop
      vertex 0 0.00999928 9
      vertex 0 0.00999928 11
      vertex -2 0.00999928 9
    endloop
  endfacet
  facet normal 0 -1 0
    outer loop
      vertex -2 0.00999928 9
      vertex 0 0.00999928 11
      vertex -2 0.00999928 25
    endloop
  endfacet
  facet normal 0 -1 0
    outer loop
      vertex 6 0.00999928 23
      vertex 8 0.00999928 25
      vertex 0 0.00999928 23
    endloop
  endfacet
  facet normal 0 -1 0
    outer loop
      vertex 6 0.00999928 11
      vertex 8 0.00999928 25
      vertex 6 0.00999928 23
    endloop
  endfacet
  facet normal 0 -1 0
    outer loop
      vertex 0 0.00999928 11
      vertex 0 0.00999928 9
      vertex 6 0.00999928 11
    endloop
  endfacet
  facet normal 0 -1 0
    outer loop
      vertex 6 0.00999928 11
      vertex 8 0.00999928 9
      vertex 8 0.00999928 25
    endloop
  endfacet
  facet normal 0 -1 0
    outer loop
      vertex 8 0.00999928 9
      vertex 6 0.00999928 11
      vertex 0 0.00999928 9
    endloop
  endfacet
  facet normal 1 -0 0
    outer loop
      vertex 0 0.00999928 23
      vertex 0 2.01 11
      vertex 0 2.01 23
    endloop
  endfacet
  facet normal 1 0 0
    outer loop
      vertex 0 2.01 11
      vertex 0 0.00999928 23
      vertex 0 0.00999928 11
    endloop
  endfacet
  facet normal 0 0 -1
    outer loop
      vertex 0 0.00999928 23
      vertex 6 2.01 23
      vertex 6 0.00999928 23
    endloop
  endfacet
  facet normal -0 0 -1
    outer loop
      vertex 6 2.01 23
      vertex 0 0.00999928 23
      vertex 0 2.01 23
    endloop
  endfacet
  facet normal -1 0 0
    outer loop
      vertex 6 0.00999928 11
      vertex 6 2.01 23
      vertex 6 2.01 11
    endloop
  endfacet
  facet normal -1 -0 0
    outer loop
      vertex 6 2.01 23
      vertex 6 0.00999928 11
      vertex 6 0.00999928 23
    endloop
  endfacet
  facet normal -0 0 1
    outer loop
      vertex 0 2.01 11
      vertex 6 0.00999928 11
      vertex 6 2.01 11
    endloop
  endfacet
  facet normal 0 0 1
    outer loop
      vertex 6 0.00999928 11
      vertex 0 2.01 11
      vertex 0 0.00999928 11
    endloop
  endfacet
  facet normal 1 -0 0
    outer loop
      vertex 0 0.00999928 9
      vertex 0 2 2
      vertex 0 2 9
    endloop
  endfacet
  facet normal 1 0 0
    outer loop
      vertex 0 0 2
      vertex 0 0.00999928 9
      vertex 0 0 9
    endloop
  endfacet
  facet normal 1 0 0
    outer loop
      vertex 0 0.00999928 9
      vertex 0 0 2
      vertex 0 2 2
    endloop
  endfacet
  facet normal -0 0 1
    outer loop
      vertex 0 2 2
      vertex 6 0 2
      vertex 6 2 2
    endloop
  endfacet
  facet normal 0 0 1
    outer loop
      vertex 6 0 2
      vertex 0 2 2
      vertex 0 0 2
    endloop
  endfacet
  facet normal 1 -0 0
    outer loop
      vertex 8 0 2.5
      vertex 8 2 0
      vertex 8 2 2.5
    endloop
  endfacet
  facet normal 1 0 0
    outer loop
      vertex 8 2 0
      vertex 8 0 2.5
      vertex 8 0 0
    endloop
  endfacet
  facet normal 0 1 0
    outer loop
      vertex 8 2 2.5
      vertex 6 2 2
      vertex 6 2 2.5
    endloop
  endfacet
  facet normal 0 1 0
    outer loop
      vertex 6 2 2
      vertex 8 2 0
      vertex 0 2 2
    endloop
  endfacet
  facet normal 0 1 -0
    outer loop
      vertex 8 2 0
      vertex 6 2 2
      vertex 8 2 2.5
    endloop
  endfacet
  facet normal 0 1 -0
    outer loop
      vertex 0 2 2
      vertex -2 2 9
      vertex 0 2 9
    endloop
  endfacet
  facet normal 0 1 0
    outer loop
      vertex 0 2 2
      vertex -2 2 0
      vertex -2 2 9
    endloop
  endfacet
  facet normal 0 1 0
    outer loop
      vertex -2 2 0
      vertex 0 2 2
      vertex 8 2 0
    endloop
  endfacet
  facet normal 0 0 -1
    outer loop
      vertex -2 0 0
      vertex 8 2 0
      vertex 8 0 0
    endloop
  endfacet
  facet normal -0 0 -1
    outer loop
      vertex 8 2 0
      vertex -2 0 0
      vertex -2 2 0
    endloop
  endfacet
  facet normal 0 -1 0
    outer loop
      vertex -2 0 9
      vertex 0 0 2
      vertex 0 0 9
    endloop
  endfacet
  facet normal 0 -1 -0
    outer loop
      vertex 0 0 2
      vertex -2 0 0
      vertex 6 0 2
    endloop
  endfacet
  facet normal 0 -1 0
    outer loop
      vertex -2 0 0
      vertex 0 0 2
      vertex -2 0 9
    endloop
  endfacet
  facet normal 0 -1 0
    outer loop
      vertex 6 0 2
      vertex 8 0 2.5
      vertex 6 0 2.5
    endloop
  endfacet
  facet normal 0 -1 0
    outer loop
      vertex 8 0 0
      vertex 6 0 2
      vertex -2 0 0
    endloop
  endfacet
  facet normal 0 -1 0
    outer loop
      vertex 6 0 2
      vertex 8 0 0
      vertex 8 0 2.5
    endloop
  endfacet
  facet normal -1 0 0
    outer loop
      vertex 6 0 2
      vertex 6 2 2.5
      vertex 6 2 2
    endloop
  endfacet
  facet normal -1 -0 0
    outer loop
      vertex 6 2 2.5
      vertex 6 0 2
      vertex 6 0 2.5
    endloop
  endfacet
  facet normal -0 0 1
    outer loop
      vertex 6 2 2.5
      vertex 8 0 2.5
      vertex 8 2 2.5
    endloop
  endfacet
  facet normal 0 0 1
    outer loop
      vertex 8 0 2.5
      vertex 6 2 2.5
      vertex 6 0 2.5
    endloop
  endfacet
endsolid OpenSCAD_Model
